  0
SECTION
  2
HEADER
  9
$ACADVER
  1
AC1024
  9
$ACADMAINTVER
 70
     6
  9
$DWGCODEPAGE
  3
UNDEFINED
  9
$INSBASE
 10
0.0
 20
0.0
 30
0.0
  9
$EXTMIN
 10
1.000000000000000E+20
 20
1.000000000000000E+20
 30
1.000000000000000E+20
  9
$EXTMAX
 10
-1.000000000000000E+20
 20
-1.000000000000000E+20
 30
-1.000000000000000E+20
  9
$LIMMIN
 10
0.0
 20
0.0
  9
$LIMMAX
 10
12.0
 20
9.0
  9
$ORTHOMODE
 70
     0
  9
$REGENMODE
 70
     1
  9
$FILLMODE
 70
     1
  9
$QTEXTMODE
 70
     0
  9
$MIRRTEXT
 70
     1
  9
$LTSCALE
 40
1.0
  9
$ATTMODE
 70
     1
  9
$TEXTSIZE
 40
0.2
  9
$TRACEWID
 40
0.05
  9
$TEXTSTYLE
  7
Standard
  9
$CLAYER
  8
0
  9
$CELTYPE
  6
ByLayer
  9
$CECOLOR
 62
   256
  9
$CELTSCALE
 40
1.0
  9
$DISPSILH
 70
     0
  9
$DIMSCALE
 40
1.0
  9
$DIMASZ
 40
0.18
  9
$DIMEXO
 40
0.0625
  9
$DIMDLI
 40
0.38
  9
$DIMRND
 40
0.0
  9
$DIMDLE
 40
0.0
  9
$DIMEXE
 40
0.18
  9
$DIMTP
 40
0.0
  9
$DIMTM
 40
0.0
  9
$DIMTXT
 40
0.18
  9
$DIMCEN
 40
0.09
  9
$DIMTSZ
 40
0.0
  9
$DIMTOL
 70
     0
  9
$DIMLIM
 70
     0
  9
$DIMTIH
 70
     1
  9
$DIMTOH
 70
     1
  9
$DIMSE1
 70
     0
  9
$DIMSE2
 70
     0
  9
$DIMTAD
 70
     0
  9
$DIMZIN
 70
     0
  9
$DIMBLK
  1

  9
$DIMASO
 70
     1
  9
$DIMSHO
 70
     1
  9
$DIMPOST
  1

  9
$DIMAPOST
  1

  9
$DIMALT
 70
     0
  9
$DIMALTD
 70
     2
  9
$DIMALTF
 40
25.4
  9
$DIMLFAC
 40
1.0
  9
$DIMTOFL
 70
     0
  9
$DIMTVP
 40
0.0
  9
$DIMTIX
 70
     0
  9
$DIMSOXD
 70
     0
  9
$DIMSAH
 70
     0
  9
$DIMBLK1
  1

  9
$DIMBLK2
  1

  9
$DIMSTYLE
  2
Standard
  9
$DIMCLRD
 70
     0
  9
$DIMCLRE
 70
     0
  9
$DIMCLRT
 70
     0
  9
$DIMTFAC
 40
1.0
  9
$DIMGAP
 40
0.09
  9
$DIMJUST
 70
     0
  9
$DIMSD1
 70
     0
  9
$DIMSD2
 70
     0
  9
$DIMTOLJ
 70
     1
  9
$DIMTZIN
 70
     0
  9
$DIMALTZ
 70
     0
  9
$DIMALTTZ
 70
     0
  9
$DIMUPT
 70
     0
  9
$DIMDEC
 70
     4
  9
$DIMTDEC
 70
     4
  9
$DIMALTU
 70
     2
  9
$DIMALTTD
 70
     2
  9
$DIMTXSTY
  7
Standard
  9
$DIMAUNIT
 70
     0
  9
$DIMADEC
 70
     0
  9
$DIMALTRND
 40
0.0
  9
$DIMAZIN
 70
     0
  9
$DIMDSEP
 70
    46
  9
$DIMATFIT
 70
     3
  9
$DIMFRAC
 70
     0
  9
$DIMLDRBLK
  1

  9
$DIMLUNIT
 70
     2
  9
$DIMLWD
 70
    -2
  9
$DIMLWE
 70
    -2
  9
$DIMTMOVE
 70
     0
  9
$DIMFXL
 40
1.0
  9
$DIMFXLON
 70
     0
  9
$DIMJOGANG
 40
0.7853981633974483
  9
$DIMTFILL
 70
     0
  9
$DIMTFILLCLR
 70
     0
  9
$DIMARCSYM
 70
     0
  9
$DIMLTYPE
  6

  9
$DIMLTEX1
  6

  9
$DIMLTEX2
  6

  9
$DIMTXTDIRECTION
 70
     0
  9
$LUNITS
 70
     2
  9
$LUPREC
 70
     4
  9
$SKETCHINC
 40
0.1
  9
$FILLETRAD
 40
0.5
  9
$AUNITS
 70
     0
  9
$AUPREC
 70
     0
  9
$MENU
  1
.
  9
$ELEVATION
 40
0.0
  9
$PELEVATION
 40
0.0
  9
$THICKNESS
 40
0.0
  9
$LIMCHECK
 70
     0
  9
$CHAMFERA
 40
0.5
  9
$CHAMFERB
 40
0.5
  9
$CHAMFERC
 40
1.0
  9
$CHAMFERD
 40
0.0
  9
$SKPOLY
 70
     0
  9
$TDCREATE
 40
2458958.553263878
  9
$TDUCREATE
 40
2458958.511597222
  9
$TDUPDATE
 40
2458958.553263878
  9
$TDUUPDATE
 40
2458958.511597222
  9
$TDINDWG
 40
0.0000000116
  9
$TDUSRTIMER
 40
0.0000000116
  9
$USRTIMER
 70
     1
  9
$ANGBASE
 50
0.0
  9
$ANGDIR
 70
     0
  9
$PDMODE
 70
     0
  9
$PDSIZE
 40
0.0
  9
$PLINEWID
 40
0.0
  9
$SPLFRAME
 70
     0
  9
$SPLINETYPE
 70
     6
  9
$SPLINESEGS
 70
     8
  9
$HANDSEED
  5
173
  9
$SURFTAB1
 70
     6
  9
$SURFTAB2
 70
     6
  9
$SURFTYPE
 70
     6
  9
$SURFU
 70
     6
  9
$SURFV
 70
     6
  9
$UCSBASE
  2

  9
$UCSNAME
  2

  9
$UCSORG
 10
0.0
 20
0.0
 30
0.0
  9
$UCSXDIR
 10
1.0
 20
0.0
 30
0.0
  9
$UCSYDIR
 10
0.0
 20
1.0
 30
0.0
  9
$UCSORTHOREF
  2

  9
$UCSORTHOVIEW
 70
     0
  9
$UCSORGTOP
 10
0.0
 20
0.0
 30
0.0
  9
$UCSORGBOTTOM
 10
0.0
 20
0.0
 30
0.0
  9
$UCSORGLEFT
 10
0.0
 20
0.0
 30
0.0
  9
$UCSORGRIGHT
 10
0.0
 20
0.0
 30
0.0
  9
$UCSORGFRONT
 10
0.0
 20
0.0
 30
0.0
  9
$UCSORGBACK
 10
0.0
 20
0.0
 30
0.0
  9
$PUCSBASE
  2

  9
$PUCSNAME
  2

  9
$PUCSORG
 10
0.0
 20
0.0
 30
0.0
  9
$PUCSXDIR
 10
1.0
 20
0.0
 30
0.0
  9
$PUCSYDIR
 10
0.0
 20
1.0
 30
0.0
  9
$PUCSORTHOREF
  2

  9
$PUCSORTHOVIEW
 70
     0
  9
$PUCSORGTOP
 10
0.0
 20
0.0
 30
0.0
  9
$PUCSORGBOTTOM
 10
0.0
 20
0.0
 30
0.0
  9
$PUCSORGLEFT
 10
0.0
 20
0.0
 30
0.0
  9
$PUCSORGRIGHT
 10
0.0
 20
0.0
 30
0.0
  9
$PUCSORGFRONT
 10
0.0
 20
0.0
 30
0.0
  9
$PUCSORGBACK
 10
0.0
 20
0.0
 30
0.0
  9
$USERI1
 70
     0
  9
$USERI2
 70
     0
  9
$USERI3
 70
     0
  9
$USERI4
 70
     0
  9
$USERI5
 70
     0
  9
$USERR1
 40
0.0
  9
$USERR2
 40
0.0
  9
$USERR3
 40
0.0
  9
$USERR4
 40
0.0
  9
$USERR5
 40
0.0
  9
$WORLDVIEW
 70
     1
  9
$SHADEDGE
 70
     3
  9
$SHADEDIF
 70
    70
  9
$TILEMODE
 70
     1
  9
$MAXACTVP
 70
    64
  9
$PINSBASE
 10
0.0
 20
0.0
 30
0.0
  9
$PLIMCHECK
 70
     0
  9
$PEXTMIN
 10
1.000000000000000E+20
 20
1.000000000000000E+20
 30
1.000000000000000E+20
  9
$PEXTMAX
 10
-1.000000000000000E+20
 20
-1.000000000000000E+20
 30
-1.000000000000000E+20
  9
$PLIMMIN
 10
0.0
 20
0.0
  9
$PLIMMAX
 10
12.0
 20
9.0
  9
$UNITMODE
 70
     0
  9
$VISRETAIN
 70
     1
  9
$PLINEGEN
 70
     0
  9
$PSLTSCALE
 70
     1
  9
$TREEDEPTH
 70
  3020
  9
$CMLSTYLE
  2
Standard
  9
$CMLJUST
 70
     0
  9
$CMLSCALE
 40
1.0
  9
$PROXYGRAPHICS
 70
     1
  9
$MEASUREMENT
 70
     0
  9
$CELWEIGHT
370
    -1
  9
$ENDCAPS
280
     0
  9
$JOINSTYLE
280
     0
  9
$LWDISPLAY
290
     1
  9
$INSUNITS
 70
     5
  9
$HYPERLINKBASE
  1

  9
$STYLESHEET
  1

  9
$XEDIT
290
     1
  9
$CEPSNTYPE
380
     0
  9
$PSTYLEMODE
290
     1
  9
$FINGERPRINTGUID
  2
{9053E3F2-3CF4-654B-CA6A-FD7A92DC06F4}
  9
$VERSIONGUID
  2
{FAEB1C32-E019-11D5-929B-00C0DF256EC4}
  9
$EXTNAMES
290
     1
  9
$PSVPSCALE
 40
0.0
  9
$OLESTARTUP
290
     0
  9
$SORTENTS
280
   127
  9
$INDEXCTL
280
     0
  9
$HIDETEXT
280
     1
  9
$XCLIPFRAME
280
     2
  9
$HALOGAP
280
     0
  9
$OBSCOLOR
 70
   257
  9
$OBSLTYPE
280
     0
  9
$INTERSECTIONDISPLAY
280
     0
  9
$INTERSECTIONCOLOR
 70
   257
  9
$DIMASSOC
280
     2
  9
$PROJECTNAME
  1

  9
$CAMERADISPLAY
290
     0
  9
$LENSLENGTH
 40
50.0
  9
$CAMERAHEIGHT
 40
0.0
  9
$STEPSPERSEC
 40
2.0
  9
$STEPSIZE
 40
6.0
  9
$3DDWFPREC
 40
2.0
  9
$PSOLWIDTH
 40
0.25
  9
$PSOLHEIGHT
 40
4.0
  9
$LOFTANG1
 40
1.570796326794897
  9
$LOFTANG2
 40
1.570796326794897
  9
$LOFTMAG1
 40
0.0
  9
$LOFTMAG2
 40
0.0
  9
$LOFTPARAM
 70
     7
  9
$LOFTNORMALS
280
     1
  9
$LATITUDE
 40
37.795
  9
$LONGITUDE
 40
-122.394
  9
$NORTHDIRECTION
 40
0.0
  9
$TIMEZONE
 70
 -8000
  9
$LIGHTGLYPHDISPLAY
280
     1
  9
$TILEMODELIGHTSYNCH
280
     1
  9
$CMATERIAL
347
3C
  9
$SOLIDHIST
280
     1
  9
$SHOWHIST
280
     1
  9
$DWFFRAME
280
     2
  9
$DGNFRAME
280
     2
  9
$REALWORLDSCALE
290
     1
  9
$INTERFERECOLOR
 62
   256
  9
$CSHADOW
280
     0
  9
$SHADOWPLANELOCATION
 40
0.0
  0
ENDSEC
  0
SECTION
  2
CLASSES
  0
CLASS
  1
ACDBDICTIONARYWDFLT
  2
AcDbDictionaryWithDefault
  3
ObjectDBX Classes
 90
        0
 91
        4
280
     0
281
     0
  0
CLASS
  1
VISUALSTYLE
  2
AcDbVisualStyle
  3
ObjectDBX Classes
 90
     4095
 91
        4
280
     0
281
     0
  0
CLASS
  1
MATERIAL
  2
AcDbMaterial
  3
ObjectDBX Classes
 90
     1153
 91
        4
280
     0
281
     0
  0
CLASS
  1
SUN
  2
AcDbSun
  3
SCENEOE
 90
     1024
 91
        4
280
     0
281
     0
  0
CLASS
  1
IMAGEDEF
  2
AcDbRasterImageDef
  3
ISM
 90
        0
 91
        4
280
     0
281
     0
  0
CLASS
  1
RASTERVARIABLES
  2
AcDbRasterVariables
  3
ISM
 90
        0
 91
        4
280
     0
281
     0
  0
CLASS
  1
IMAGE
  2
AcDbRasterImage
  3
ISM
 90
      127
 91
        5
280
     0
281
     1
  0
CLASS
  1
IMAGEDEF_REACTOR
  2
AcDbRasterImageDefReactor
  3
ISM
 90
        1
 91
        4
280
     0
281
     0
  0
ENDSEC
  0
SECTION
  2
TABLES
  0
TABLE
  2
VPORT
  5
8
330
0
100
AcDbSymbolTable
 70
     1
  0
VPORT
  5
29
330
8
100
AcDbSymbolTableRecord
100
AcDbViewportTableRecord
  2
*Active
 70
     0
 10
0.0
 20
0.0
 11
1.0
 21
1.0
 12
0.0
 22
0.0
 13
0.0
 23
0.0
 14
0.5
 24
0.5
 15
0.5
 25
0.5
 16
0.0
 26
0.0
 36
1.0
 17
14.84999999628701
 27
-10.49999999737534
 37
0.0
 40
20.99999999475068
 41
1.414285714285622
 42
50.0
 43
0.0
 44
0.0
 50
0.0
 51
0.0
 71
     0
 72
   100
 73
     1
 74
     3
 75
     0
 76
     0
 77
     0
 78
     0
281
     0
 65
     1
110
0.0
120
0.0
130
0.0
111
1.0
121
0.0
131
0.0
112
0.0
122
1.0
132
0.0
 79
     0
146
0.0
 60
     3
 61
     5
292
     1
282
     1
141
0.0
142
0.0
 63
   250
361
3F
  0
ENDTAB
  0
TABLE
  2
LTYPE
  5
5
330
0
100
AcDbSymbolTable
 70
     1
  0
LTYPE
  5
14
330
5
100
AcDbSymbolTableRecord
100
AcDbLinetypeTableRecord
  2
ByBlock
 70
     0
  3

 72
    65
 73
     0
 40
0.0
  0
LTYPE
  5
15
330
5
100
AcDbSymbolTableRecord
100
AcDbLinetypeTableRecord
  2
ByLayer
 70
     0
  3

 72
    65
 73
     0
 40
0.0
  0
LTYPE
  5
16
330
5
100
AcDbSymbolTableRecord
100
AcDbLinetypeTableRecord
  2
Continuous
 70
     0
  3
Solid line
 72
    65
 73
     0
 40
0.0
  0
ENDTAB
  0
TABLE
  2
LAYER
  5
2
330
0
100
AcDbSymbolTable
 70
     2
  0
LAYER
  5
10
330
2
100
AcDbSymbolTableRecord
100
AcDbLayerTableRecord
  2
0
 70
     0
 62
     7
  6
Continuous
370
    -3
390
F
347
3E
  0
LAYER
  5
40
330
2
100
AcDbSymbolTableRecord
100
AcDbLayerTableRecord
  2
Layer 1
 70
     0
 62
     7
  6
Continuous
370
    -3
390
F
347
3E
  0
ENDTAB
  0
TABLE
  2
STYLE
  5
3
330
0
100
AcDbSymbolTable
 70
     1
  0
STYLE
  5
11
330
3
100
AcDbSymbolTableRecord
100
AcDbTextStyleTableRecord
  2
Standard
 70
     0
 40
0.0
 41
1.0
 50
0.0
 71
     0
 42
0.2
  3
txt
  4

  0
ENDTAB
  0
TABLE
  2
VIEW
  5
6
330
0
100
AcDbSymbolTable
 70
     0
  0
ENDTAB
  0
TABLE
  2
UCS
  5
7
330
0
100
AcDbSymbolTable
 70
     0
  0
ENDTAB
  0
TABLE
  2
APPID
  5
9
330
0
100
AcDbSymbolTable
 70
     1
  0
APPID
  5
12
330
9
100
AcDbSymbolTableRecord
100
AcDbRegAppTableRecord
  2
ACAD
 70
     0
  0
ENDTAB
  0
TABLE
  2
DIMSTYLE
  5
A
330
0
100
AcDbSymbolTable
 70
     1
100
AcDbDimStyleTable
  0
DIMSTYLE
105
27
330
A
100
AcDbSymbolTableRecord
100
AcDbDimStyleTableRecord
  2
Standard
 70
     0
178
     0
340
11
  0
ENDTAB
  0
TABLE
  2
BLOCK_RECORD
  5
1
330
0
100
AcDbSymbolTable
 70
     1
  0
BLOCK_RECORD
  5
1F
330
1
100
AcDbSymbolTableRecord
100
AcDbBlockTableRecord
  2
*Model_Space
340
22
 70
     0
280
     1
281
     0
  0
BLOCK_RECORD
  5
1B
330
1
100
AcDbSymbolTableRecord
100
AcDbBlockTableRecord
  2
*Paper_Space
340
1E
 70
     0
280
     1
281
     0
  0
BLOCK_RECORD
  5
23
330
1
100
AcDbSymbolTableRecord
100
AcDbBlockTableRecord
  2
*Paper_Space0
340
26
 70
     0
280
     1
281
     0
  0
ENDTAB
  0
ENDSEC
  0
SECTION
  2
BLOCKS
  0
BLOCK
  5
20
330
1F
100
AcDbEntity
  8
0
100
AcDbBlockBegin
  2
*Model_Space
 70
     0
 10
0.0
 20
0.0
 30
0.0
  3
*Model_Space
  1

  0
ENDBLK
  5
21
330
1F
100
AcDbEntity
  8
0
100
AcDbBlockEnd
  0
BLOCK
  5
1C
330
1B
100
AcDbEntity
 67
     1
  8
0
100
AcDbBlockBegin
  2
*Paper_Space
 70
     0
 10
0.0
 20
0.0
 30
0.0
  3
*Paper_Space
  1

  0
ENDBLK
  5
1D
330
1B
100
AcDbEntity
 67
     1
  8
0
100
AcDbBlockEnd
  0
BLOCK
  5
24
330
23
100
AcDbEntity
  8
0
100
AcDbBlockBegin
  2
*Paper_Space0
 70
     0
 10
0.0
 20
0.0
 30
0.0
  3
*Paper_Space0
  1

  0
ENDBLK
  5
25
330
23
100
AcDbEntity
  8
0
100
AcDbBlockEnd
  0
ENDSEC
  0
SECTION
  2
ENTITIES
  0
POLYLINE
  5
41
330
1F
100
AcDbEntity
  8
Layer 1
 62
     7
420
 16777215
370
    25
100
AcDb2dPolyline
 66
     1
 10
0.0
 20
0.0
 30
0.0
  0
VERTEX
  5
42
330
41
100
AcDbEntity
  8
Layer 1
 62
     7
420
 16777215
370
    25
100
AcDbVertex
100
AcDb2dVertex
 10
24.60183584657803
 20
-8.44894948112378
 30
0.0
  0
VERTEX
  5
43
330
41
100
AcDbEntity
  8
Layer 1
 62
     7
420
 16777215
370
    25
100
AcDbVertex
100
AcDb2dVertex
 10
24.60183584657803
 20
-8.049957900684248
 30
0.0
  0
VERTEX
  5
44
330
41
100
AcDbEntity
  8
Layer 1
 62
     7
420
 16777215
370
    25
100
AcDbVertex
100
AcDb2dVertex
 10
5.101691062499045
 20
-8.049957900684248
 30
0.0
  0
VERTEX
  5
45
330
41
100
AcDbEntity
  8
Layer 1
 62
     7
420
 16777215
370
    25
100
AcDbVertex
100
AcDb2dVertex
 10
5.101691062499045
 20
-8.44894948112378
 30
0.0
  0
VERTEX
  5
46
330
41
100
AcDbEntity
  8
Layer 1
 62
     7
420
 16777215
370
    25
100
AcDbVertex
100
AcDb2dVertex
 10
4.002434301434883
 20
-8.44894948112378
 30
0.0
  0
VERTEX
  5
47
330
41
100
AcDbEntity
  8
Layer 1
 62
     7
420
 16777215
370
    25
100
AcDbVertex
100
AcDb2dVertex
 10
4.002434301434883
 20
-12.55105051362693
 30
0.0
  0
VERTEX
  5
48
330
41
100
AcDbEntity
  8
Layer 1
 62
     7
420
 16777215
370
    25
100
AcDbVertex
100
AcDb2dVertex
 10
5.101691062499045
 20
-12.55105051362693
 30
0.0
  0
VERTEX
  5
49
330
41
100
AcDbEntity
  8
Layer 1
 62
     7
420
 16777215
370
    25
100
AcDbVertex
100
AcDb2dVertex
 10
5.101691062499045
 20
-12.95004209406646
 30
0.0
  0
VERTEX
  5
4A
330
41
100
AcDbEntity
  8
Layer 1
 62
     7
420
 16777215
370
    25
100
AcDbVertex
100
AcDb2dVertex
 10
13.66960477699118
 20
-12.95004209406646
 30
0.0
  0
VERTEX
  5
4B
330
41
100
AcDbEntity
  8
Layer 1
 62
     7
420
 16777215
370
    25
100
AcDbVertex
100
AcDb2dVertex
 10
13.67595667179211
 20
-12.94792551352771
 30
0.0
  0
VERTEX
  5
4C
330
41
100
AcDbEntity
  8
Layer 1
 62
     7
420
 16777215
370
    25
100
AcDbVertex
100
AcDb2dVertex
 10
13.68653742130118
 20
-12.94792551352771
 30
0.0
  0
VERTEX
  5
4D
330
41
100
AcDbEntity
  8
Layer 1
 62
     7
420
 16777215
370
    25
100
AcDbVertex
100
AcDb2dVertex
 10
13.69077058237868
 20
-12.94580893298896
 30
0.0
  0
VERTEX
  5
4E
330
41
100
AcDbEntity
  8
Layer 1
 62
     7
420
 16777215
370
    25
100
AcDbVertex
100
AcDb2dVertex
 10
13.70135563825711
 20
-12.94580893298896
 30
0.0
  0
VERTEX
  5
4F
330
41
100
AcDbEntity
  8
Layer 1
 62
     7
420
 16777215
370
    25
100
AcDbVertex
100
AcDb2dVertex
 10
13.70770322668869
 20
-12.94369235245021
 30
0.0
  0
VERTEX
  5
50
330
41
100
AcDbEntity
  8
Layer 1
 62
     7
420
 16777215
370
    25
100
AcDbVertex
100
AcDb2dVertex
 10
13.71194069413554
 20
-12.94369235245021
 30
0.0
  0
VERTEX
  5
51
330
41
100
AcDbEntity
  8
Layer 1
 62
     7
420
 16777215
370
    25
100
AcDbVertex
100
AcDb2dVertex
 10
13.71616954884369
 20
-12.94157577191146
 30
0.0
  0
VERTEX
  5
52
330
41
100
AcDbEntity
  8
Layer 1
 62
     7
420
 16777215
370
    25
100
AcDbVertex
100
AcDb2dVertex
 10
13.72252144364462
 20
-12.94157577191146
 30
0.0
  0
VERTEX
  5
53
330
41
100
AcDbEntity
  8
Layer 1
 62
     7
420
 16777215
370
    25
100
AcDbVertex
100
AcDb2dVertex
 10
13.72675460472212
 20
-12.93945919137271
 30
0.0
  0
VERTEX
  5
54
330
41
100
AcDbEntity
  8
Layer 1
 62
     7
420
 16777215
370
    25
100
AcDbVertex
100
AcDb2dVertex
 10
13.73310219315369
 20
-12.93734261083396
 30
0.0
  0
VERTEX
  5
55
330
41
100
AcDbEntity
  8
Layer 1
 62
     7
420
 16777215
370
    25
100
AcDbVertex
100
AcDb2dVertex
 10
13.73733966060055
 20
-12.93734261083396
 30
0.0
  0
VERTEX
  5
56
330
41
100
AcDbEntity
  8
Layer 1
 62
     7
420
 16777215
370
    25
100
AcDbVertex
100
AcDb2dVertex
 10
13.74156851530869
 20
-12.93522603029521
 30
0.0
  0
VERTEX
  5
57
330
41
100
AcDbEntity
  8
Layer 1
 62
     7
420
 16777215
370
    25
100
AcDbVertex
100
AcDb2dVertex
 10
13.74792041010962
 20
-12.93310729657178
 30
0.0
  0
VERTEX
  5
58
330
41
100
AcDbEntity
  8
Layer 1
 62
     7
420
 16777215
370
    25
100
AcDbVertex
100
AcDb2dVertex
 10
13.75638673226462
 20
-12.92887413549428
 30
0.0
  0
VERTEX
  5
59
330
41
100
AcDbEntity
  8
Layer 1
 62
     7
420
 16777215
370
    25
100
AcDbVertex
100
AcDb2dVertex
 10
13.76273862706555
 20
-12.92675755495553
 30
0.0
  0
VERTEX
  5
5A
330
41
100
AcDbEntity
  8
Layer 1
 62
     7
420
 16777215
370
    25
100
AcDbVertex
100
AcDb2dVertex
 10
13.77120494922055
 20
-12.92252439387803
 30
0.0
  0
VERTEX
  5
5B
330
41
100
AcDbEntity
  8
Layer 1
 62
     7
420
 16777215
370
    25
100
AcDbVertex
100
AcDb2dVertex
 10
13.77755253765213
 20
-12.92040781333928
 30
0.0
  0
VERTEX
  5
5C
330
41
100
AcDbEntity
  8
Layer 1
 62
     7
420
 16777215
370
    25
100
AcDbVertex
100
AcDb2dVertex
 10
13.79025632725399
 20
-12.91405807172303
 30
0.0
  0
VERTEX
  5
5D
330
41
100
AcDbEntity
  8
Layer 1
 62
     7
420
 16777215
370
    25
100
AcDbVertex
100
AcDb2dVertex
 10
13.79660391568556
 20
-12.91194149118428
 30
0.0
  0
VERTEX
  5
5E
330
41
100
AcDbEntity
  8
Layer 1
 62
     7
420
 16777215
370
    25
100
AcDbVertex
100
AcDb2dVertex
 10
13.80083707676306
 20
-12.90982491064553
 30
0.0
  0
VERTEX
  5
5F
330
41
100
AcDbEntity
  8
Layer 1
 62
     7
420
 16777215
370
    25
100
AcDbVertex
100
AcDb2dVertex
 10
13.80507023784056
 20
-12.90559174956803
 30
0.0
  0
VERTEX
  5
60
330
41
100
AcDbEntity
  8
Layer 1
 62
     7
420
 16777215
370
    25
100
AcDbVertex
100
AcDb2dVertex
 10
13.81353655999556
 20
-12.90135858849053
 30
0.0
  0
VERTEX
  5
61
330
41
100
AcDbEntity
  8
Layer 1
 62
     7
420
 16777215
370
    25
100
AcDbVertex
100
AcDb2dVertex
 10
13.81777402744242
 20
-12.89712542741302
 30
0.0
  0
VERTEX
  5
62
330
41
100
AcDbEntity
  8
Layer 1
 62
     7
420
 16777215
370
    25
100
AcDbVertex
100
AcDb2dVertex
 10
13.82200288215056
 20
-12.89500884687427
 30
0.0
  0
VERTEX
  5
63
330
41
100
AcDbEntity
  8
Layer 1
 62
     7
420
 16777215
370
    25
100
AcDbVertex
100
AcDb2dVertex
 10
13.82624034959742
 20
-12.89077568579677
 30
0.0
  0
VERTEX
  5
64
330
41
100
AcDbEntity
  8
Layer 1
 62
     7
420
 16777215
370
    25
100
AcDbVertex
100
AcDb2dVertex
 10
13.83046920430557
 20
-12.88865910525802
 30
0.0
  0
VERTEX
  5
65
330
41
100
AcDbEntity
  8
Layer 1
 62
     7
420
 16777215
370
    25
100
AcDbVertex
100
AcDb2dVertex
 10
13.83470667175242
 20
-12.88442594418052
 30
0.0
  0
VERTEX
  5
66
330
41
100
AcDbEntity
  8
Layer 1
 62
     7
420
 16777215
370
    25
100
AcDbVertex
100
AcDb2dVertex
 10
13.83893552646057
 20
-12.88230936364177
 30
0.0
  0
VERTEX
  5
67
330
41
100
AcDbEntity
  8
Layer 1
 62
     7
420
 16777215
370
    25
100
AcDbVertex
100
AcDb2dVertex
 10
13.84317299390742
 20
-12.87807404937959
 30
0.0
  0
VERTEX
  5
68
330
41
100
AcDbEntity
  8
Layer 1
 62
     7
420
 16777215
370
    25
100
AcDbVertex
100
AcDb2dVertex
 10
13.84740184861557
 20
-12.87384088830209
 30
0.0
  0
VERTEX
  5
69
330
41
100
AcDbEntity
  8
Layer 1
 62
     7
420
 16777215
370
    25
100
AcDbVertex
100
AcDb2dVertex
 10
13.85163931606242
 20
-12.87172430776334
 30
0.0
  0
VERTEX
  5
6A
330
41
100
AcDbEntity
  8
Layer 1
 62
     7
420
 16777215
370
    25
100
AcDbVertex
100
AcDb2dVertex
 10
13.85586817077057
 20
-12.86749114668584
 30
0.0
  0
VERTEX
  5
6B
330
41
100
AcDbEntity
  8
Layer 1
 62
     7
420
 16777215
370
    25
100
AcDbVertex
100
AcDb2dVertex
 10
13.857986904494
 20
-12.86325798560834
 30
0.0
  0
VERTEX
  5
6C
330
41
100
AcDbEntity
  8
Layer 1
 62
     7
420
 16777215
370
    25
100
AcDbVertex
100
AcDb2dVertex
 10
13.8622200655715
 20
-12.86114140506959
 30
0.0
  0
VERTEX
  5
6D
330
41
100
AcDbEntity
  8
Layer 1
 62
     7
420
 16777215
370
    25
100
AcDbVertex
100
AcDb2dVertex
 10
13.866453226649
 20
-12.85690824399209
 30
0.0
  0
VERTEX
  5
6E
330
41
100
AcDbEntity
  8
Layer 1
 62
     7
420
 16777215
370
    25
100
AcDbVertex
100
AcDb2dVertex
 10
13.87069069409586
 20
-12.85267508291459
 30
0.0
  0
VERTEX
  5
6F
330
41
100
AcDbEntity
  8
Layer 1
 62
     7
420
 16777215
370
    25
100
AcDbVertex
100
AcDb2dVertex
 10
13.87280512144993
 20
-12.84844192183709
 30
0.0
  0
VERTEX
  5
70
330
41
100
AcDbEntity
  8
Layer 1
 62
     7
420
 16777215
370
    25
100
AcDbVertex
100
AcDb2dVertex
 10
13.88127144360493
 20
-12.83997559968209
 30
0.0
  0
VERTEX
  5
71
330
41
100
AcDbEntity
  8
Layer 1
 62
     7
420
 16777215
370
    25
100
AcDbVertex
100
AcDb2dVertex
 10
13.883385870959
 20
-12.83574243860459
 30
0.0
  0
VERTEX
  5
72
330
41
100
AcDbEntity
  8
Layer 1
 62
     7
420
 16777215
370
    25
100
AcDbVertex
100
AcDb2dVertex
 10
13.88762333840586
 20
-12.83150927752709
 30
0.0
  0
VERTEX
  5
73
330
41
100
AcDbEntity
  8
Layer 1
 62
     7
420
 16777215
370
    25
100
AcDbVertex
100
AcDb2dVertex
 10
13.88973776575993
 20
-12.82727396326491
 30
0.0
  0
VERTEX
  5
74
330
41
100
AcDbEntity
  8
Layer 1
 62
     7
420
 16777215
370
    25
100
AcDbVertex
100
AcDb2dVertex
 10
13.89397092683743
 20
-12.82304080218741
 30
0.0
  0
VERTEX
  5
75
330
41
100
AcDbEntity
  8
Layer 1
 62
     7
420
 16777215
370
    25
100
AcDbVertex
100
AcDb2dVertex
 10
13.89608966056086
 20
-12.8188076411099
 30
0.0
  0
VERTEX
  5
76
330
41
100
AcDbEntity
  8
Layer 1
 62
     7
420
 16777215
370
    25
100
AcDbVertex
100
AcDb2dVertex
 10
13.900318515269
 20
-12.81457448003241
 30
0.0
  0
VERTEX
  5
77
330
41
100
AcDbEntity
  8
Layer 1
 62
     7
420
 16777215
370
    25
100
AcDbVertex
100
AcDb2dVertex
 10
13.90667041006994
 20
-12.8018749967999
 30
0.0
  0
VERTEX
  5
78
330
41
100
AcDbEntity
  8
Layer 1
 62
     7
420
 16777215
370
    25
100
AcDbVertex
100
AcDb2dVertex
 10
13.91090357114743
 20
-12.7976418357224
 30
0.0
  0
VERTEX
  5
79
330
41
100
AcDbEntity
  8
Layer 1
 62
     7
420
 16777215
370
    25
100
AcDbVertex
100
AcDb2dVertex
 10
13.91302230487086
 20
-12.79129209410615
 30
0.0
  0
VERTEX
  5
7A
330
41
100
AcDbEntity
  8
Layer 1
 62
     7
420
 16777215
370
    25
100
AcDbVertex
100
AcDb2dVertex
 10
13.91936989330244
 20
-12.77859261087365
 30
0.0
  0
VERTEX
  5
7B
330
41
100
AcDbEntity
  8
Layer 1
 62
     7
420
 16777215
370
    25
100
AcDbVertex
100
AcDb2dVertex
 10
13.9320736829043
 20
-12.75530807176272
 30
0.0
  0
VERTEX
  5
7C
330
41
100
AcDbEntity
  8
Layer 1
 62
     7
420
 16777215
370
    25
100
AcDbVertex
100
AcDb2dVertex
 10
13.94265443241337
 20
-12.73202568583646
 30
0.0
  0
VERTEX
  5
7D
330
41
100
AcDbEntity
  8
Layer 1
 62
     7
420
 16777215
370
    25
100
AcDbVertex
100
AcDb2dVertex
 10
13.95323518192244
 20
-12.70874114672553
 30
0.0
  0
VERTEX
  5
7E
330
41
100
AcDbEntity
  8
Layer 1
 62
     7
420
 16777215
370
    25
100
AcDbVertex
100
AcDb2dVertex
 10
13.96382023780087
 20
-12.68545876079927
 30
0.0
  0
VERTEX
  5
7F
330
41
100
AcDbEntity
  8
Layer 1
 62
     7
420
 16777215
370
    25
100
AcDbVertex
100
AcDb2dVertex
 10
13.97652402740273
 20
-12.66217422168834
 30
0.0
  0
VERTEX
  5
80
330
41
100
AcDbEntity
  8
Layer 1
 62
     7
420
 16777215
370
    25
100
AcDbVertex
100
AcDb2dVertex
 10
13.9871047769118
 20
-12.64100841630084
 30
0.0
  0
VERTEX
  5
81
330
41
100
AcDbEntity
  8
Layer 1
 62
     7
420
 16777215
370
    25
100
AcDbVertex
100
AcDb2dVertex
 10
13.99768552642088
 20
-12.61772603037459
 30
0.0
  0
VERTEX
  5
82
330
41
100
AcDbEntity
  8
Layer 1
 62
     7
420
 16777215
370
    25
100
AcDbVertex
100
AcDb2dVertex
 10
14.01038931602274
 20
-12.59444149126365
 30
0.0
  0
VERTEX
  5
83
330
41
100
AcDbEntity
  8
Layer 1
 62
     7
420
 16777215
370
    25
100
AcDbVertex
100
AcDb2dVertex
 10
14.02097006553181
 20
-12.57327568587615
 30
0.0
  0
VERTEX
  5
84
330
41
100
AcDbEntity
  8
Layer 1
 62
     7
420
 16777215
370
    25
100
AcDbVertex
100
AcDb2dVertex
 10
14.03366954876431
 20
-12.54999114676522
 30
0.0
  0
VERTEX
  5
85
330
41
100
AcDbEntity
  8
Layer 1
 62
     7
420
 16777215
370
    25
100
AcDbVertex
100
AcDb2dVertex
 10
14.04425460464274
 20
-12.52882534137771
 30
0.0
  0
VERTEX
  5
86
330
41
100
AcDbEntity
  8
Layer 1
 62
     7
420
 16777215
370
    25
100
AcDbVertex
100
AcDb2dVertex
 10
14.05695408787525
 20
-12.50765738280553
 30
0.0
  0
VERTEX
  5
87
330
41
100
AcDbEntity
  8
Layer 1
 62
     7
420
 16777215
370
    25
100
AcDbVertex
100
AcDb2dVertex
 10
14.06965357110775
 20
-12.48649157741803
 30
0.0
  0
VERTEX
  5
88
330
41
100
AcDbEntity
  8
Layer 1
 62
     7
420
 16777215
370
    25
100
AcDbVertex
100
AcDb2dVertex
 10
14.08023862698618
 20
-12.46320919149177
 30
0.0
  0
VERTEX
  5
89
330
41
100
AcDbEntity
  8
Layer 1
 62
     7
420
 16777215
370
    25
100
AcDbVertex
100
AcDb2dVertex
 10
14.09293811021868
 20
-12.44204123291959
 30
0.0
  0
VERTEX
  5
8A
330
41
100
AcDbEntity
  8
Layer 1
 62
     7
420
 16777215
370
    25
100
AcDbVertex
100
AcDb2dVertex
 10
14.10351885972775
 20
-12.42299200807084
 30
0.0
  0
VERTEX
  5
8B
330
41
100
AcDbEntity
  8
Layer 1
 62
     7
420
 16777215
370
    25
100
AcDbVertex
100
AcDb2dVertex
 10
14.11622264932961
 20
-12.40182404949866
 30
0.0
  0
VERTEX
  5
8C
330
41
100
AcDbEntity
  8
Layer 1
 62
     7
420
 16777215
370
    25
100
AcDbVertex
100
AcDb2dVertex
 10
14.12891782619276
 20
-12.38065824411115
 30
0.0
  0
VERTEX
  5
8D
330
41
100
AcDbEntity
  8
Layer 1
 62
     7
420
 16777215
370
    25
100
AcDbVertex
100
AcDb2dVertex
 10
14.14162161579462
 20
-12.35949243872365
 30
0.0
  0
VERTEX
  5
8E
330
41
100
AcDbEntity
  8
Layer 1
 62
     7
420
 16777215
370
    25
100
AcDbVertex
100
AcDb2dVertex
 10
14.15220667167305
 20
-12.34044106069022
 30
0.0
  0
VERTEX
  5
8F
330
41
100
AcDbEntity
  8
Layer 1
 62
     7
420
 16777215
370
    25
100
AcDbVertex
100
AcDb2dVertex
 10
14.16490184853619
 20
-12.31927525530271
 30
0.0
  0
VERTEX
  5
90
330
41
100
AcDbEntity
  8
Layer 1
 62
     7
420
 16777215
370
    25
100
AcDbVertex
100
AcDb2dVertex
 10
14.17760563813805
 20
-12.30022603045396
 30
0.0
  0
VERTEX
  5
91
330
41
100
AcDbEntity
  8
Layer 1
 62
     7
420
 16777215
370
    25
100
AcDbVertex
100
AcDb2dVertex
 10
14.19030512137055
 20
-12.28117465242053
 30
0.0
  0
VERTEX
  5
92
330
41
100
AcDbEntity
  8
Layer 1
 62
     7
420
 16777215
370
    25
100
AcDbVertex
100
AcDb2dVertex
 10
14.20300460460306
 20
-12.26212542757177
 30
0.0
  0
VERTEX
  5
93
330
41
100
AcDbEntity
  8
Layer 1
 62
     7
420
 16777215
370
    25
100
AcDbVertex
100
AcDb2dVertex
 10
14.21570408783556
 20
-12.24307404953834
 30
0.0
  0
VERTEX
  5
94
330
41
100
AcDbEntity
  8
Layer 1
 62
     7
420
 16777215
370
    25
100
AcDbVertex
100
AcDb2dVertex
 10
14.22840357106806
 20
-12.22402482468959
 30
0.0
  0
VERTEX
  5
95
330
41
100
AcDbEntity
  8
Layer 1
 62
     7
420
 16777215
370
    25
100
AcDbVertex
100
AcDb2dVertex
 10
14.24110736066992
 20
-12.20497559984084
 30
0.0
  0
VERTEX
  5
96
330
41
100
AcDbEntity
  8
Layer 1
 62
     7
420
 16777215
370
    25
100
AcDbVertex
100
AcDb2dVertex
 10
14.25380253753307
 20
-12.18592422180741
 30
0.0
  0
VERTEX
  5
97
330
41
100
AcDbEntity
  8
Layer 1
 62
     7
420
 16777215
370
    25
100
AcDbVertex
100
AcDb2dVertex
 10
14.26650632713492
 20
-12.1689915774974
 30
0.0
  0
VERTEX
  5
98
330
41
100
AcDbEntity
  8
Layer 1
 62
     7
420
 16777215
370
    25
100
AcDbVertex
100
AcDb2dVertex
 10
14.27920150399807
 20
-12.14994235264865
 30
0.0
  0
VERTEX
  5
99
330
41
100
AcDbEntity
  8
Layer 1
 62
     7
420
 16777215
370
    25
100
AcDbVertex
100
AcDb2dVertex
 10
14.29190529359993
 20
-12.13300755515397
 30
0.0
  0
VERTEX
  5
9A
330
41
100
AcDbEntity
  8
Layer 1
 62
     7
420
 16777215
370
    25
100
AcDbVertex
100
AcDb2dVertex
 10
14.30460477683243
 20
-12.11607491084396
 30
0.0
  0
VERTEX
  5
9B
330
41
100
AcDbEntity
  8
Layer 1
 62
     7
420
 16777215
370
    25
100
AcDbVertex
100
AcDb2dVertex
 10
14.31942299378836
 20
-12.09702568599521
 30
0.0
  0
VERTEX
  5
9C
330
41
100
AcDbEntity
  8
Layer 1
 62
     7
420
 16777215
370
    25
100
AcDbVertex
100
AcDb2dVertex
 10
14.33211817065151
 20
-12.08009088850053
 30
0.0
  0
VERTEX
  5
9D
330
41
100
AcDbEntity
  8
Layer 1
 62
     7
420
 16777215
370
    25
100
AcDbVertex
100
AcDb2dVertex
 10
14.34694069397679
 20
-12.06315824419053
 30
0.0
  0
VERTEX
  5
9E
330
41
100
AcDbEntity
  8
Layer 1
 62
     7
420
 16777215
370
    25
100
AcDbVertex
100
AcDb2dVertex
 10
14.36175460456337
 20
-12.04622559988053
 30
0.0
  0
VERTEX
  5
9F
330
41
100
AcDbEntity
  8
Layer 1
 62
     7
420
 16777215
370
    25
100
AcDbVertex
100
AcDb2dVertex
 10
14.37656851514994
 20
-12.02929080238584
 30
0.0
  0
VERTEX
  5
A0
330
41
100
AcDbEntity
  8
Layer 1
 62
     7
420
 16777215
370
    25
100
AcDbVertex
100
AcDb2dVertex
 10
14.38292040995087
 20
-12.02082448023084
 30
0.0
  0
VERTEX
  5
A1
330
41
100
AcDbEntity
  8
Layer 1
 62
     7
420
 16777215
370
    25
100
AcDbVertex
100
AcDb2dVertex
 10
14.39138673210587
 20
-12.01235815807584
 30
0.0
  0
VERTEX
  5
A2
330
41
100
AcDbEntity
  8
Layer 1
 62
     7
420
 16777215
370
    25
100
AcDbVertex
100
AcDb2dVertex
 10
14.3977386269068
 20
-12.00389183592084
 30
0.0
  0
VERTEX
  5
A3
330
41
100
AcDbEntity
  8
Layer 1
 62
     7
420
 16777215
370
    25
100
AcDbVertex
100
AcDb2dVertex
 10
14.4062049490618
 20
-11.99542551376584
 30
0.0
  0
VERTEX
  5
A4
330
41
100
AcDbEntity
  8
Layer 1
 62
     7
420
 16777215
370
    25
100
AcDbVertex
100
AcDb2dVertex
 10
14.41255253749338
 20
-11.98695919161084
 30
0.0
  0
VERTEX
  5
A5
330
41
100
AcDbEntity
  8
Layer 1
 62
     7
420
 16777215
370
    25
100
AcDbVertex
100
AcDb2dVertex
 10
14.42101885964838
 20
-11.97849071627116
 30
0.0
  0
VERTEX
  5
A6
330
41
100
AcDbEntity
  8
Layer 1
 62
     7
420
 16777215
370
    25
100
AcDbVertex
100
AcDb2dVertex
 10
14.44430339875931
 20
-11.9552083303449
 30
0.0
  0
VERTEX
  5
A7
330
41
100
AcDbEntity
  8
Layer 1
 62
     7
420
 16777215
370
    25
100
AcDbVertex
100
AcDb2dVertex
 10
14.45277402728367
 20
-11.9467420081899
 30
0.0
  0
VERTEX
  5
A8
330
41
100
AcDbEntity
  8
Layer 1
 62
     7
420
 16777215
370
    25
100
AcDbVertex
100
AcDb2dVertex
 10
14.46758793787024
 20
-11.93192594441865
 30
0.0
  0
VERTEX
  5
A9
330
41
100
AcDbEntity
  8
Layer 1
 62
     7
420
 16777215
370
    25
100
AcDbVertex
100
AcDb2dVertex
 10
14.47605426002525
 20
-11.92345746907897
 30
0.0
  0
VERTEX
  5
AA
330
41
100
AcDbEntity
  8
Layer 1
 62
     7
420
 16777215
370
    25
100
AcDbVertex
100
AcDb2dVertex
 10
14.48452058218025
 20
-11.91710772746272
 30
0.0
  0
VERTEX
  5
AB
330
41
100
AcDbEntity
  8
Layer 1
 62
     7
420
 16777215
370
    25
100
AcDbVertex
100
AcDb2dVertex
 10
14.49298690433525
 20
-11.90864140530772
 30
0.0
  0
VERTEX
  5
AC
330
41
100
AcDbEntity
  8
Layer 1
 62
     7
420
 16777215
370
    25
100
AcDbVertex
100
AcDb2dVertex
 10
14.50145322649025
 20
-11.90229166369146
 30
0.0
  0
VERTEX
  5
AD
330
41
100
AcDbEntity
  8
Layer 1
 62
     7
420
 16777215
370
    25
100
AcDbVertex
100
AcDb2dVertex
 10
14.50991954864525
 20
-11.89594192207521
 30
0.0
  0
VERTEX
  5
AE
330
41
100
AcDbEntity
  8
Layer 1
 62
     7
420
 16777215
370
    25
100
AcDbVertex
100
AcDb2dVertex
 10
14.51838587080025
 20
-11.88747559992021
 30
0.0
  0
VERTEX
  5
AF
330
41
100
AcDbEntity
  8
Layer 1
 62
     7
420
 16777215
370
    25
100
AcDbVertex
100
AcDb2dVertex
 10
14.52685219295525
 20
-11.88112585830396
 30
0.0
  0
VERTEX
  5
B0
330
41
100
AcDbEntity
  8
Layer 1
 62
     7
420
 16777215
370
    25
100
AcDbVertex
100
AcDb2dVertex
 10
14.53531851511026
 20
-11.87477396350303
 30
0.0
  0
VERTEX
  5
B1
330
41
100
AcDbEntity
  8
Layer 1
 62
     7
420
 16777215
370
    25
100
AcDbVertex
100
AcDb2dVertex
 10
14.54378483726526
 20
-11.86842422188678
 30
0.0
  0
VERTEX
  5
B2
330
41
100
AcDbEntity
  8
Layer 1
 62
     7
420
 16777215
370
    25
100
AcDbVertex
100
AcDb2dVertex
 10
14.55225115942026
 20
-11.85995789973178
 30
0.0
  0
VERTEX
  5
B3
330
41
100
AcDbEntity
  8
Layer 1
 62
     7
420
 16777215
370
    25
100
AcDbVertex
100
AcDb2dVertex
 10
14.56072178794462
 20
-11.85360815811553
 30
0.0
  0
VERTEX
  5
B4
330
41
100
AcDbEntity
  8
Layer 1
 62
     7
420
 16777215
370
    25
100
AcDbVertex
100
AcDb2dVertex
 10
14.57130253745369
 20
-11.84725841649928
 30
0.0
  0
VERTEX
  5
B5
330
41
100
AcDbEntity
  8
Layer 1
 62
     7
420
 16777215
370
    25
100
AcDbVertex
100
AcDb2dVertex
 10
14.57976885960869
 20
-11.84090867488303
 30
0.0
  0
VERTEX
  5
B6
330
41
100
AcDbEntity
  8
Layer 1
 62
     7
420
 16777215
370
    25
100
AcDbVertex
100
AcDb2dVertex
 10
14.58823518176369
 20
-11.83667551380553
 30
0.0
  0
VERTEX
  5
B7
330
41
100
AcDbEntity
  8
Layer 1
 62
     7
420
 16777215
370
    25
100
AcDbVertex
100
AcDb2dVertex
 10
14.59882023764212
 20
-11.83032577218927
 30
0.0
  0
VERTEX
  5
B8
330
41
100
AcDbEntity
  8
Layer 1
 62
     7
420
 16777215
370
    25
100
AcDbVertex
100
AcDb2dVertex
 10
14.60728655979712
 20
-11.82397603057302
 30
0.0
  0
VERTEX
  5
B9
330
41
100
AcDbEntity
  8
Layer 1
 62
     7
420
 16777215
370
    25
100
AcDbVertex
100
AcDb2dVertex
 10
14.61787161567555
 20
-11.81762413577209
 30
0.0
  0
VERTEX
  5
BA
330
41
100
AcDbEntity
  8
Layer 1
 62
     7
420
 16777215
370
    25
100
AcDbVertex
100
AcDb2dVertex
 10
14.62633793783056
 20
-11.81339097469459
 30
0.0
  0
VERTEX
  5
BB
330
41
100
AcDbEntity
  8
Layer 1
 62
     7
420
 16777215
370
    25
100
AcDbVertex
100
AcDb2dVertex
 10
14.63692299370899
 20
-11.80704123307834
 30
0.0
  0
VERTEX
  5
BC
330
41
100
AcDbEntity
  8
Layer 1
 62
     7
420
 16777215
370
    25
100
AcDbVertex
100
AcDb2dVertex
 10
14.64538931586399
 20
-11.80280807200084
 30
0.0
  0
VERTEX
  5
BD
330
41
100
AcDbEntity
  8
Layer 1
 62
     7
420
 16777215
370
    25
100
AcDbVertex
100
AcDb2dVertex
 10
14.65597006537306
 20
-11.79857491092334
 30
0.0
  0
VERTEX
  5
BE
330
41
100
AcDbEntity
  8
Layer 1
 62
     7
420
 16777215
370
    25
100
AcDbVertex
100
AcDb2dVertex
 10
14.66444069389742
 20
-11.79222516930709
 30
0.0
  0
VERTEX
  5
BF
330
41
100
AcDbEntity
  8
Layer 1
 62
     7
420
 16777215
370
    25
100
AcDbVertex
100
AcDb2dVertex
 10
14.696187248794
 20
-11.77952568607459
 30
0.0
  0
VERTEX
  5
C0
330
41
100
AcDbEntity
  8
Layer 1
 62
     7
420
 16777215
370
    25
100
AcDbVertex
100
AcDb2dVertex
 10
14.704653570949
 20
-11.77740910553584
 30
0.0
  0
VERTEX
  5
C1
330
41
100
AcDbEntity
  8
Layer 1
 62
     7
420
 16777215
370
    25
100
AcDbVertex
100
AcDb2dVertex
 10
14.71523862682743
 20
-11.77317594445834
 30
0.0
  0
VERTEX
  5
C2
330
41
100
AcDbEntity
  8
Layer 1
 62
     7
420
 16777215
370
    25
100
AcDbVertex
100
AcDb2dVertex
 10
14.72582368270586
 20
-11.76894063019616
 30
0.0
  0
VERTEX
  5
C3
330
41
100
AcDbEntity
  8
Layer 1
 62
     7
420
 16777215
370
    25
100
AcDbVertex
100
AcDb2dVertex
 10
14.73640443221493
 20
-11.76682404965741
 30
0.0
  0
VERTEX
  5
C4
330
41
100
AcDbEntity
  8
Layer 1
 62
     7
420
 16777215
370
    25
100
AcDbVertex
100
AcDb2dVertex
 10
14.74698518172401
 20
-11.76259088857991
 30
0.0
  0
VERTEX
  5
C5
330
41
100
AcDbEntity
  8
Layer 1
 62
     7
420
 16777215
370
    25
100
AcDbVertex
100
AcDb2dVertex
 10
14.75757023760243
 20
-11.76047430804116
 30
0.0
  0
VERTEX
  5
C6
330
41
100
AcDbEntity
  8
Layer 1
 62
     7
420
 16777215
370
    25
100
AcDbVertex
100
AcDb2dVertex
 10
14.76815529348086
 20
-11.75835772750241
 30
0.0
  0
VERTEX
  5
C7
330
41
100
AcDbEntity
  8
Layer 1
 62
     7
420
 16777215
370
    25
100
AcDbVertex
100
AcDb2dVertex
 10
14.79990184837744
 20
-11.75200798588615
 30
0.0
  0
VERTEX
  5
C8
330
41
100
AcDbEntity
  8
Layer 1
 62
     7
420
 16777215
370
    25
100
AcDbVertex
100
AcDb2dVertex
 10
14.8126056379793
 20
-11.75200798588615
 30
0.0
  0
VERTEX
  5
C9
330
41
100
AcDbEntity
  8
Layer 1
 62
     7
420
 16777215
370
    25
100
AcDbVertex
100
AcDb2dVertex
 10
14.82319069385773
 20
-11.7498914053474
 30
0.0
  0
VERTEX
  5
CA
330
41
100
AcDbEntity
  8
Layer 1
 62
     7
420
 16777215
370
    25
100
AcDbVertex
100
AcDb2dVertex
 10
14.87822178786524
 20
-11.7498914053474
 30
0.0
  0
VERTEX
  5
CB
330
41
100
AcDbEntity
  8
Layer 1
 62
     7
420
 16777215
370
    25
100
AcDbVertex
100
AcDb2dVertex
 10
14.88880253737435
 20
-11.75200798588615
 30
0.0
  0
VERTEX
  5
CC
330
41
100
AcDbEntity
  8
Layer 1
 62
     7
420
 16777215
370
    25
100
AcDbVertex
100
AcDb2dVertex
 10
14.89938759325278
 20
-11.75200798588615
 30
0.0
  0
VERTEX
  5
CD
330
41
100
AcDbEntity
  8
Layer 1
 62
     7
420
 16777215
370
    25
100
AcDbVertex
100
AcDb2dVertex
 10
14.92055339864028
 20
-11.75624114696365
 30
0.0
  0
VERTEX
  5
CE
330
41
100
AcDbEntity
  8
Layer 1
 62
     7
420
 16777215
370
    25
100
AcDbVertex
100
AcDb2dVertex
 10
14.93113845451871
 20
-11.75835772750241
 30
0.0
  0
VERTEX
  5
CF
330
41
100
AcDbEntity
  8
Layer 1
 62
     7
420
 16777215
370
    25
100
AcDbVertex
100
AcDb2dVertex
 10
14.96288931578465
 20
-11.76470746911866
 30
0.0
  0
VERTEX
  5
D0
330
41
100
AcDbEntity
  8
Layer 1
 62
     7
420
 16777215
370
    25
100
AcDbVertex
100
AcDb2dVertex
 10
14.97347006529372
 20
-11.76894063019616
 30
0.0
  0
VERTEX
  5
D1
330
41
100
AcDbEntity
  8
Layer 1
 62
     7
420
 16777215
370
    25
100
AcDbVertex
100
AcDb2dVertex
 10
14.98405512117215
 20
-11.77105936391959
 30
0.0
  0
VERTEX
  5
D2
330
41
100
AcDbEntity
  8
Layer 1
 62
     7
420
 16777215
370
    25
100
AcDbVertex
100
AcDb2dVertex
 10
15.01580598243808
 20
-11.78375884715209
 30
0.0
  0
VERTEX
  5
D3
330
41
100
AcDbEntity
  8
Layer 1
 62
     7
420
 16777215
370
    25
100
AcDbVertex
100
AcDb2dVertex
 10
15.02427230459308
 20
-11.78799200822959
 30
0.0
  0
VERTEX
  5
D4
330
41
100
AcDbEntity
  8
Layer 1
 62
     7
420
 16777215
370
    25
100
AcDbVertex
100
AcDb2dVertex
 10
15.03485736047151
 20
-11.79222516930709
 30
0.0
  0
VERTEX
  5
D5
330
41
100
AcDbEntity
  8
Layer 1
 62
     7
420
 16777215
370
    25
100
AcDbVertex
100
AcDb2dVertex
 10
15.05601885948966
 20
-11.80069149146209
 30
0.0
  0
VERTEX
  5
D6
330
41
100
AcDbEntity
  8
Layer 1
 62
     7
420
 16777215
370
    25
100
AcDbVertex
100
AcDb2dVertex
 10
15.06448518164466
 20
-11.80704123307834
 30
0.0
  0
VERTEX
  5
D7
330
41
100
AcDbEntity
  8
Layer 1
 62
     7
420
 16777215
370
    25
100
AcDbVertex
100
AcDb2dVertex
 10
15.07507023752309
 20
-11.81127439415584
 30
0.0
  0
VERTEX
  5
D8
330
41
100
AcDbEntity
  8
Layer 1
 62
     7
420
 16777215
370
    25
100
AcDbVertex
100
AcDb2dVertex
 10
15.08353655967809
 20
-11.81762413577209
 30
0.0
  0
VERTEX
  5
D9
330
41
100
AcDbEntity
  8
Layer 1
 62
     7
420
 16777215
370
    25
100
AcDbVertex
100
AcDb2dVertex
 10
15.09412161555652
 20
-11.82185729684959
 30
0.0
  0
VERTEX
  5
DA
330
41
100
AcDbEntity
  8
Layer 1
 62
     7
420
 16777215
370
    25
100
AcDbVertex
100
AcDb2dVertex
 10
15.10258793771153
 20
-11.82820919165052
 30
0.0
  0
VERTEX
  5
DB
330
41
100
AcDbEntity
  8
Layer 1
 62
     7
420
 16777215
370
    25
100
AcDbVertex
100
AcDb2dVertex
 10
15.11317299358996
 20
-11.83455893326678
 30
0.0
  0
VERTEX
  5
DC
330
41
100
AcDbEntity
  8
Layer 1
 62
     7
420
 16777215
370
    25
100
AcDbVertex
100
AcDb2dVertex
 10
15.13010563789996
 20
-11.84725841649928
 30
0.0
  0
VERTEX
  5
DD
330
41
100
AcDbEntity
  8
Layer 1
 62
     7
420
 16777215
370
    25
100
AcDbVertex
100
AcDb2dVertex
 10
15.13857196005496
 20
-11.85360815811553
 30
0.0
  0
VERTEX
  5
DE
330
41
100
AcDbEntity
  8
Layer 1
 62
     7
420
 16777215
370
    25
100
AcDbVertex
100
AcDb2dVertex
 10
15.14915701593339
 20
-11.85995789973178
 30
0.0
  0
VERTEX
  5
DF
330
41
100
AcDbEntity
  8
Layer 1
 62
     7
420
 16777215
370
    25
100
AcDbVertex
100
AcDb2dVertex
 10
15.16608966024339
 20
-11.87265738296428
 30
0.0
  0
VERTEX
  5
E0
330
41
100
AcDbEntity
  8
Layer 1
 62
     7
420
 16777215
370
    25
100
AcDbVertex
100
AcDb2dVertex
 10
15.1745559823984
 20
-11.87900927776521
 30
0.0
  0
VERTEX
  5
E1
330
41
100
AcDbEntity
  8
Layer 1
 62
     7
420
 16777215
370
    25
100
AcDbVertex
100
AcDb2dVertex
 10
15.1830223045534
 20
-11.88535901938146
 30
0.0
  0
VERTEX
  5
E2
330
41
100
AcDbEntity
  8
Layer 1
 62
     7
420
 16777215
370
    25
100
AcDbVertex
100
AcDb2dVertex
 10
15.1914886267084
 20
-11.89382534153646
 30
0.0
  0
VERTEX
  5
E3
330
41
100
AcDbEntity
  8
Layer 1
 62
     7
420
 16777215
370
    25
100
AcDbVertex
100
AcDb2dVertex
 10
15.2084212710184
 20
-11.90652482476897
 30
0.0
  0
VERTEX
  5
E4
330
41
100
AcDbEntity
  8
Layer 1
 62
     7
420
 16777215
370
    25
100
AcDbVertex
100
AcDb2dVertex
 10
15.2168875931734
 20
-11.91499114692397
 30
0.0
  0
VERTEX
  5
E5
330
41
100
AcDbEntity
  8
Layer 1
 62
     7
420
 16777215
370
    25
100
AcDbVertex
100
AcDb2dVertex
 10
15.2253539153284
 20
-11.92134088854022
 30
0.0
  0
VERTEX
  5
E6
330
41
100
AcDbEntity
  8
Layer 1
 62
     7
420
 16777215
370
    25
100
AcDbVertex
100
AcDb2dVertex
 10
15.23382023748341
 20
-11.9298093638799
 30
0.0
  0
VERTEX
  5
E7
330
41
100
AcDbEntity
  8
Layer 1
 62
     7
420
 16777215
370
    25
100
AcDbVertex
100
AcDb2dVertex
 10
15.24016782591498
 20
-11.93615910549615
 30
0.0
  0
VERTEX
  5
E8
330
41
100
AcDbEntity
  8
Layer 1
 62
     7
420
 16777215
370
    25
100
AcDbVertex
100
AcDb2dVertex
 10
15.24863845443934
 20
-11.94462542765115
 30
0.0
  0
VERTEX
  5
E9
330
41
100
AcDbEntity
  8
Layer 1
 62
     7
420
 16777215
370
    25
100
AcDbVertex
100
AcDb2dVertex
 10
15.28038931570527
 20
-11.97637413573241
 30
0.0
  0
VERTEX
  5
EA
330
41
100
AcDbEntity
  8
Layer 1
 62
     7
420
 16777215
370
    25
100
AcDbVertex
100
AcDb2dVertex
 10
15.28885563786027
 20
-11.98484261107209
 30
0.0
  0
VERTEX
  5
EB
330
41
100
AcDbEntity
  8
Layer 1
 62
     7
420
 16777215
370
    25
100
AcDbVertex
100
AcDb2dVertex
 10
15.29520322629184
 20
-11.99330893322709
 30
0.0
  0
VERTEX
  5
EC
330
41
100
AcDbEntity
  8
Layer 1
 62
     7
420
 16777215
370
    25
100
AcDbVertex
100
AcDb2dVertex
 10
15.30366954844684
 20
-12.00177525538209
 30
0.0
  0
VERTEX
  5
ED
330
41
100
AcDbEntity
  8
Layer 1
 62
     7
420
 16777215
370
    25
100
AcDbVertex
100
AcDb2dVertex
 10
15.31213587060185
 20
-12.01024157753709
 30
0.0
  0
VERTEX
  5
EE
330
41
100
AcDbEntity
  8
Layer 1
 62
     7
420
 16777215
370
    25
100
AcDbVertex
100
AcDb2dVertex
 10
15.31848776540278
 20
-12.01870789969209
 30
0.0
  0
VERTEX
  5
EF
330
41
100
AcDbEntity
  8
Layer 1
 62
     7
420
 16777215
370
    25
100
AcDbVertex
100
AcDb2dVertex
 10
15.32695408755778
 20
-12.02717422184709
 30
0.0
  0
VERTEX
  5
F0
330
41
100
AcDbEntity
  8
Layer 1
 62
     7
420
 16777215
370
    25
100
AcDbVertex
100
AcDb2dVertex
 10
15.33330598235871
 20
-12.03564269718677
 30
0.0
  0
VERTEX
  5
F1
330
41
100
AcDbEntity
  8
Layer 1
 62
     7
420
 16777215
370
    25
100
AcDbVertex
100
AcDb2dVertex
 10
15.34811989294528
 20
-12.05257534149678
 30
0.0
  0
VERTEX
  5
F2
330
41
100
AcDbEntity
  8
Layer 1
 62
     7
420
 16777215
370
    25
100
AcDbVertex
100
AcDb2dVertex
 10
15.36293810990121
 20
-12.06950798580678
 30
0.0
  0
VERTEX
  5
F3
330
41
100
AcDbEntity
  8
Layer 1
 62
     7
420
 16777215
370
    25
100
AcDbVertex
100
AcDb2dVertex
 10
15.37563759313371
 20
-12.08644063011678
 30
0.0
  0
VERTEX
  5
F4
330
41
100
AcDbEntity
  8
Layer 1
 62
     7
420
 16777215
370
    25
100
AcDbVertex
100
AcDb2dVertex
 10
15.39045150372029
 20
-12.10549200815021
 30
0.0
  0
VERTEX
  5
F5
330
41
100
AcDbEntity
  8
Layer 1
 62
     7
420
 16777215
370
    25
100
AcDbVertex
100
AcDb2dVertex
 10
15.40315529332215
 20
-12.12242465246022
 30
0.0
  0
VERTEX
  5
F6
330
41
100
AcDbEntity
  8
Layer 1
 62
     7
420
 16777215
370
    25
100
AcDbVertex
100
AcDb2dVertex
 10
15.41796920390872
 20
-12.14147603049365
 30
0.0
  0
VERTEX
  5
F7
330
41
100
AcDbEntity
  8
Layer 1
 62
     7
420
 16777215
370
    25
100
AcDbVertex
100
AcDb2dVertex
 10
15.44336817037373
 20
-12.17534131911365
 30
0.0
  0
VERTEX
  5
F8
330
41
100
AcDbEntity
  8
Layer 1
 62
     7
420
 16777215
370
    25
100
AcDbVertex
100
AcDb2dVertex
 10
15.45607195997558
 20
-12.19439269714709
 30
0.0
  0
VERTEX
  5
F9
330
41
100
AcDbEntity
  8
Layer 1
 62
     7
420
 16777215
370
    25
100
AcDbVertex
100
AcDb2dVertex
 10
15.46877144320809
 20
-12.21132534145709
 30
0.0
  0
VERTEX
  5
FA
330
41
100
AcDbEntity
  8
Layer 1
 62
     7
420
 16777215
370
    25
100
AcDbVertex
100
AcDb2dVertex
 10
15.48147092644059
 20
-12.23037456630584
 30
0.0
  0
VERTEX
  5
FB
330
41
100
AcDbEntity
  8
Layer 1
 62
     7
420
 16777215
370
    25
100
AcDbVertex
100
AcDb2dVertex
 10
15.49205598231902
 20
-12.24942594433927
 30
0.0
  0
VERTEX
  5
FC
330
41
100
AcDbEntity
  8
Layer 1
 62
     7
420
 16777215
370
    25
100
AcDbVertex
100
AcDb2dVertex
 10
15.50475115918216
 20
-12.26847516918803
 30
0.0
  0
VERTEX
  5
FD
330
41
100
AcDbEntity
  8
Layer 1
 62
     7
420
 16777215
370
    25
100
AcDbVertex
100
AcDb2dVertex
 10
15.51745494878402
 20
-12.28540781349803
 30
0.0
  0
VERTEX
  5
FE
330
41
100
AcDbEntity
  8
Layer 1
 62
     7
420
 16777215
370
    25
100
AcDbVertex
100
AcDb2dVertex
 10
15.53015443201653
 20
-12.30445919153146
 30
0.0
  0
VERTEX
  5
FF
330
41
100
AcDbEntity
  8
Layer 1
 62
     7
420
 16777215
370
    25
100
AcDbVertex
100
AcDb2dVertex
 10
15.5407351815256
 20
-12.32350841638021
 30
0.0
  0
VERTEX
  5
100
330
41
100
AcDbEntity
  8
Layer 1
 62
     7
420
 16777215
370
    25
100
AcDbVertex
100
AcDb2dVertex
 10
15.55343897112746
 20
-12.34467422176772
 30
0.0
  0
VERTEX
  5
101
330
41
100
AcDbEntity
  8
Layer 1
 62
     7
420
 16777215
370
    25
100
AcDbVertex
100
AcDb2dVertex
 10
15.56402402700589
 20
-12.36372559980115
 30
0.0
  0
VERTEX
  5
102
330
41
100
AcDbEntity
  8
Layer 1
 62
     7
420
 16777215
370
    25
100
AcDbVertex
100
AcDb2dVertex
 10
15.57671920386903
 20
-12.3827748246499
 30
0.0
  0
VERTEX
  5
103
330
41
100
AcDbEntity
  8
Layer 1
 62
     7
420
 16777215
370
    25
100
AcDbVertex
100
AcDb2dVertex
 10
15.58730425974746
 20
-12.40182404949866
 30
0.0
  0
VERTEX
  5
104
330
41
100
AcDbEntity
  8
Layer 1
 62
     7
420
 16777215
370
    25
100
AcDbVertex
100
AcDb2dVertex
 10
15.60000374297997
 20
-12.42087542753209
 30
0.0
  0
VERTEX
  5
105
330
41
100
AcDbEntity
  8
Layer 1
 62
     7
420
 16777215
370
    25
100
AcDbVertex
100
AcDb2dVertex
 10
15.61058449248904
 20
-12.44204123291959
 30
0.0
  0
VERTEX
  5
106
330
41
100
AcDbEntity
  8
Layer 1
 62
     7
420
 16777215
370
    25
100
AcDbVertex
100
AcDb2dVertex
 10
15.62116954836747
 20
-12.46109261095302
 30
0.0
  0
VERTEX
  5
107
330
41
100
AcDbEntity
  8
Layer 1
 62
     7
420
 16777215
370
    25
100
AcDbVertex
100
AcDb2dVertex
 10
15.6317546042459
 20
-12.48225841634053
 30
0.0
  0
VERTEX
  5
108
330
41
100
AcDbEntity
  8
Layer 1
 62
     7
420
 16777215
370
    25
100
AcDbVertex
100
AcDb2dVertex
 10
15.64233966012433
 20
-12.50130764118928
 30
0.0
  0
VERTEX
  5
109
330
41
100
AcDbEntity
  8
Layer 1
 62
     7
420
 16777215
370
    25
100
AcDbVertex
100
AcDb2dVertex
 10
15.65503483698748
 20
-12.52035901922271
 30
0.0
  0
VERTEX
  5
10A
330
41
100
AcDbEntity
  8
Layer 1
 62
     7
420
 16777215
370
    25
100
AcDbVertex
100
AcDb2dVertex
 10
15.66561989286591
 20
-12.54152482461022
 30
0.0
  0
VERTEX
  5
10B
330
41
100
AcDbEntity
  8
Layer 1
 62
     7
420
 16777215
370
    25
100
AcDbVertex
100
AcDb2dVertex
 10
15.67620494874434
 20
-12.56057404945897
 30
0.0
  0
VERTEX
  5
10C
330
41
100
AcDbEntity
  8
Layer 1
 62
     7
420
 16777215
370
    25
100
AcDbVertex
100
AcDb2dVertex
 10
15.68679000462277
 20
-12.58174200803115
 30
0.0
  0
VERTEX
  5
10D
330
41
100
AcDbEntity
  8
Layer 1
 62
     7
420
 16777215
370
    25
100
AcDbVertex
100
AcDb2dVertex
 10
15.69525632677777
 20
-12.6007912328799
 30
0.0
  0
VERTEX
  5
10E
330
41
100
AcDbEntity
  8
Layer 1
 62
     7
420
 16777215
370
    25
100
AcDbVertex
100
AcDb2dVertex
 10
15.70583707628684
 20
-12.61984261091334
 30
0.0
  0
VERTEX
  5
10F
330
41
100
AcDbEntity
  8
Layer 1
 62
     7
420
 16777215
370
    25
100
AcDbVertex
100
AcDb2dVertex
 10
15.71641782579592
 20
-12.64100841630084
 30
0.0
  0
VERTEX
  5
110
330
41
100
AcDbEntity
  8
Layer 1
 62
     7
420
 16777215
370
    25
100
AcDbVertex
100
AcDb2dVertex
 10
15.72700288167434
 20
-12.66005764114959
 30
0.0
  0
VERTEX
  5
111
330
41
100
AcDbEntity
  8
Layer 1
 62
     7
420
 16777215
370
    25
100
AcDbVertex
100
AcDb2dVertex
 10
15.73546920382935
 20
-12.67910901918302
 30
0.0
  0
VERTEX
  5
112
330
41
100
AcDbEntity
  8
Layer 1
 62
     7
420
 16777215
370
    25
100
AcDbVertex
100
AcDb2dVertex
 10
15.74605425970778
 20
-12.70027482457053
 30
0.0
  0
VERTEX
  5
113
330
41
100
AcDbEntity
  8
Layer 1
 62
     7
420
 16777215
370
    25
100
AcDbVertex
100
AcDb2dVertex
 10
15.75452058186278
 20
-12.71932404941928
 30
0.0
  0
VERTEX
  5
114
330
41
100
AcDbEntity
  8
Layer 1
 62
     7
420
 16777215
370
    25
100
AcDbVertex
100
AcDb2dVertex
 10
15.76510563774121
 20
-12.73837542745271
 30
0.0
  0
VERTEX
  5
115
330
41
100
AcDbEntity
  8
Layer 1
 62
     7
420
 16777215
370
    25
100
AcDbVertex
100
AcDb2dVertex
 10
15.77357195989621
 20
-12.75742465230147
 30
0.0
  0
VERTEX
  5
116
330
41
100
AcDbEntity
  8
Layer 1
 62
     7
420
 16777215
370
    25
100
AcDbVertex
100
AcDb2dVertex
 10
15.78415701577464
 20
-12.77859261087365
 30
0.0
  0
VERTEX
  5
117
330
41
100
AcDbEntity
  8
Layer 1
 62
     7
420
 16777215
370
    25
100
AcDbVertex
100
AcDb2dVertex
 10
15.79050460420621
 20
-12.79129209410615
 30
0.0
  0
VERTEX
  5
118
330
41
100
AcDbEntity
  8
Layer 1
 62
     7
420
 16777215
370
    25
100
AcDbVertex
100
AcDb2dVertex
 10
15.79262333792964
 20
-12.7976418357224
 30
0.0
  0
VERTEX
  5
119
330
41
100
AcDbEntity
  8
Layer 1
 62
     7
420
 16777215
370
    25
100
AcDbVertex
100
AcDb2dVertex
 10
15.79685219263779
 20
-12.8018749967999
 30
0.0
  0
VERTEX
  5
11A
330
41
100
AcDbEntity
  8
Layer 1
 62
     7
420
 16777215
370
    25
100
AcDbVertex
100
AcDb2dVertex
 10
15.80320408743871
 20
-12.81457448003241
 30
0.0
  0
VERTEX
  5
11B
330
41
100
AcDbEntity
  8
Layer 1
 62
     7
420
 16777215
370
    25
100
AcDbVertex
100
AcDb2dVertex
 10
15.80743724851622
 20
-12.8188076411099
 30
0.0
  0
VERTEX
  5
11C
330
41
100
AcDbEntity
  8
Layer 1
 62
     7
420
 16777215
370
    25
100
AcDbVertex
100
AcDb2dVertex
 10
15.80955598223964
 20
-12.82304080218741
 30
0.0
  0
VERTEX
  5
11D
330
41
100
AcDbEntity
  8
Layer 1
 62
     7
420
 16777215
370
    25
100
AcDbVertex
100
AcDb2dVertex
 10
15.81378483694779
 20
-12.82727396326491
 30
0.0
  0
VERTEX
  5
11E
330
41
100
AcDbEntity
  8
Layer 1
 62
     7
420
 16777215
370
    25
100
AcDbVertex
100
AcDb2dVertex
 10
15.81590357067122
 20
-12.83150927752709
 30
0.0
  0
VERTEX
  5
11F
330
41
100
AcDbEntity
  8
Layer 1
 62
     7
420
 16777215
370
    25
100
AcDbVertex
100
AcDb2dVertex
 10
15.82013673174872
 20
-12.83574243860459
 30
0.0
  0
VERTEX
  5
120
330
41
100
AcDbEntity
  8
Layer 1
 62
     7
420
 16777215
370
    25
100
AcDbVertex
100
AcDb2dVertex
 10
15.82225115910279
 20
-12.83997559968209
 30
0.0
  0
VERTEX
  5
121
330
41
100
AcDbEntity
  8
Layer 1
 62
     7
420
 16777215
370
    25
100
AcDbVertex
100
AcDb2dVertex
 10
15.82648862654965
 20
-12.84420876075959
 30
0.0
  0
VERTEX
  5
122
330
41
100
AcDbEntity
  8
Layer 1
 62
     7
420
 16777215
370
    25
100
AcDbVertex
100
AcDb2dVertex
 10
15.83072178762715
 20
-12.84844192183709
 30
0.0
  0
VERTEX
  5
123
330
41
100
AcDbEntity
  8
Layer 1
 62
     7
420
 16777215
370
    25
100
AcDbVertex
100
AcDb2dVertex
 10
15.83283621498122
 20
-12.85267508291459
 30
0.0
  0
VERTEX
  5
124
330
41
100
AcDbEntity
  8
Layer 1
 62
     7
420
 16777215
370
    25
100
AcDbVertex
100
AcDb2dVertex
 10
15.84130253713622
 20
-12.86114140506959
 30
0.0
  0
VERTEX
  5
125
330
41
100
AcDbEntity
  8
Layer 1
 62
     7
420
 16777215
370
    25
100
AcDbVertex
100
AcDb2dVertex
 10
15.84554000458308
 20
-12.86325798560834
 30
0.0
  0
VERTEX
  5
126
330
41
100
AcDbEntity
  8
Layer 1
 62
     7
420
 16777215
370
    25
100
AcDbVertex
100
AcDb2dVertex
 10
15.84765443193715
 20
-12.86749114668584
 30
0.0
  0
VERTEX
  5
127
330
41
100
AcDbEntity
  8
Layer 1
 62
     7
420
 16777215
370
    25
100
AcDbVertex
100
AcDb2dVertex
 10
15.85188759301465
 20
-12.87172430776334
 30
0.0
  0
VERTEX
  5
128
330
41
100
AcDbEntity
  8
Layer 1
 62
     7
420
 16777215
370
    25
100
AcDbVertex
100
AcDb2dVertex
 10
15.85612075409215
 20
-12.87384088830209
 30
0.0
  0
VERTEX
  5
129
330
41
100
AcDbEntity
  8
Layer 1
 62
     7
420
 16777215
370
    25
100
AcDbVertex
100
AcDb2dVertex
 10
15.86035391516965
 20
-12.87807404937959
 30
0.0
  0
VERTEX
  5
12A
330
41
100
AcDbEntity
  8
Layer 1
 62
     7
420
 16777215
370
    25
100
AcDbVertex
100
AcDb2dVertex
 10
15.86458707624715
 20
-12.88230936364177
 30
0.0
  0
VERTEX
  5
12B
330
41
100
AcDbEntity
  8
Layer 1
 62
     7
420
 16777215
370
    25
100
AcDbVertex
100
AcDb2dVertex
 10
15.86882023732466
 20
-12.88442594418052
 30
0.0
  0
VERTEX
  5
12C
330
41
100
AcDbEntity
  8
Layer 1
 62
     7
420
 16777215
370
    25
100
AcDbVertex
100
AcDb2dVertex
 10
15.87305339840216
 20
-12.88865910525802
 30
0.0
  0
VERTEX
  5
12D
330
41
100
AcDbEntity
  8
Layer 1
 62
     7
420
 16777215
370
    25
100
AcDbVertex
100
AcDb2dVertex
 10
15.87728655947966
 20
-12.89077568579677
 30
0.0
  0
VERTEX
  5
12E
330
41
100
AcDbEntity
  8
Layer 1
 62
     7
420
 16777215
370
    25
100
AcDbVertex
100
AcDb2dVertex
 10
15.88152402692651
 20
-12.89500884687427
 30
0.0
  0
VERTEX
  5
12F
330
41
100
AcDbEntity
  8
Layer 1
 62
     7
420
 16777215
370
    25
100
AcDbVertex
100
AcDb2dVertex
 10
15.88575288163466
 20
-12.89712542741302
 30
0.0
  0
VERTEX
  5
130
330
41
100
AcDbEntity
  8
Layer 1
 62
     7
420
 16777215
370
    25
100
AcDbVertex
100
AcDb2dVertex
 10
15.88999034908151
 20
-12.90135858849053
 30
0.0
  0
VERTEX
  5
131
330
41
100
AcDbEntity
  8
Layer 1
 62
     7
420
 16777215
370
    25
100
AcDbVertex
100
AcDb2dVertex
 10
15.89845667123652
 20
-12.90559174956803
 30
0.0
  0
VERTEX
  5
132
330
41
100
AcDbEntity
  8
Layer 1
 62
     7
420
 16777215
370
    25
100
AcDbVertex
100
AcDb2dVertex
 10
15.90268552594466
 20
-12.90982491064553
 30
0.0
  0
VERTEX
  5
133
330
41
100
AcDbEntity
  8
Layer 1
 62
     7
420
 16777215
370
    25
100
AcDbVertex
100
AcDb2dVertex
 10
15.90692299339152
 20
-12.91194149118428
 30
0.0
  0
VERTEX
  5
134
330
41
100
AcDbEntity
  8
Layer 1
 62
     7
420
 16777215
370
    25
100
AcDbVertex
100
AcDb2dVertex
 10
15.91327058182309
 20
-12.91405807172303
 30
0.0
  0
VERTEX
  5
135
330
41
100
AcDbEntity
  8
Layer 1
 62
     7
420
 16777215
370
    25
100
AcDbVertex
100
AcDb2dVertex
 10
15.92597006505559
 20
-12.92040781333928
 30
0.0
  0
VERTEX
  5
136
330
41
100
AcDbEntity
  8
Layer 1
 62
     7
420
 16777215
370
    25
100
AcDbVertex
100
AcDb2dVertex
 10
15.93232195985652
 20
-12.92252439387803
 30
0.0
  0
VERTEX
  5
137
330
41
100
AcDbEntity
  8
Layer 1
 62
     7
420
 16777215
370
    25
100
AcDbVertex
100
AcDb2dVertex
 10
15.94502144308902
 20
-12.92887413549428
 30
0.0
  0
VERTEX
  5
138
330
41
100
AcDbEntity
  8
Layer 1
 62
     7
420
 16777215
370
    25
100
AcDbVertex
100
AcDb2dVertex
 10
15.95137333788995
 20
-12.93099071603303
 30
0.0
  0
VERTEX
  5
139
330
41
100
AcDbEntity
  8
Layer 1
 62
     7
420
 16777215
370
    25
100
AcDbVertex
100
AcDb2dVertex
 10
15.9556021925981
 20
-12.93310729657178
 30
0.0
  0
VERTEX
  5
13A
330
41
100
AcDbEntity
  8
Layer 1
 62
     7
420
 16777215
370
    25
100
AcDbVertex
100
AcDb2dVertex
 10
15.96195408739903
 20
-12.93522603029521
 30
0.0
  0
VERTEX
  5
13B
330
41
100
AcDbEntity
  8
Layer 1
 62
     7
420
 16777215
370
    25
100
AcDbVertex
100
AcDb2dVertex
 10
15.96618724847653
 20
-12.93734261083396
 30
0.0
  0
VERTEX
  5
13C
330
41
100
AcDbEntity
  8
Layer 1
 62
     7
420
 16777215
370
    25
100
AcDbVertex
100
AcDb2dVertex
 10
15.97042040955403
 20
-12.93734261083396
 30
0.0
  0
VERTEX
  5
13D
330
41
100
AcDbEntity
  8
Layer 1
 62
     7
420
 16777215
370
    25
100
AcDbVertex
100
AcDb2dVertex
 10
15.97677230435496
 20
-12.93945919137271
 30
0.0
  0
VERTEX
  5
13E
330
41
100
AcDbEntity
  8
Layer 1
 62
     7
420
 16777215
370
    25
100
AcDbVertex
100
AcDb2dVertex
 10
15.9810011590631
 20
-12.94157577191146
 30
0.0
  0
VERTEX
  5
13F
330
41
100
AcDbEntity
  8
Layer 1
 62
     7
420
 16777215
370
    25
100
AcDbVertex
100
AcDb2dVertex
 10
15.98735736023339
 20
-12.94157577191146
 30
0.0
  0
VERTEX
  5
140
330
41
100
AcDbEntity
  8
Layer 1
 62
     7
420
 16777215
370
    25
100
AcDbVertex
100
AcDb2dVertex
 10
15.99158621494153
 20
-12.94369235245021
 30
0.0
  0
VERTEX
  5
141
330
41
100
AcDbEntity
  8
Layer 1
 62
     7
420
 16777215
370
    25
100
AcDbVertex
100
AcDb2dVertex
 10
15.99582368238839
 20
-12.94369235245021
 30
0.0
  0
VERTEX
  5
142
330
41
100
AcDbEntity
  8
Layer 1
 62
     7
420
 16777215
370
    25
100
AcDbVertex
100
AcDb2dVertex
 10
16.00217127081996
 20
-12.94580893298896
 30
0.0
  0
VERTEX
  5
143
330
41
100
AcDbEntity
  8
Layer 1
 62
     7
420
 16777215
370
    25
100
AcDbVertex
100
AcDb2dVertex
 10
16.01275632669839
 20
-12.94580893298896
 30
0.0
  0
VERTEX
  5
144
330
41
100
AcDbEntity
  8
Layer 1
 62
     7
420
 16777215
370
    25
100
AcDbVertex
100
AcDb2dVertex
 10
16.01698518140654
 20
-12.94792551352771
 30
0.0
  0
VERTEX
  5
145
330
41
100
AcDbEntity
  8
Layer 1
 62
     7
420
 16777215
370
    25
100
AcDbVertex
100
AcDb2dVertex
 10
16.02757023728497
 20
-12.94792551352771
 30
0.0
  0
VERTEX
  5
146
330
41
100
AcDbEntity
  8
Layer 1
 62
     7
420
 16777215
370
    25
100
AcDbVertex
100
AcDb2dVertex
 10
16.03391782571654
 20
-12.95004209406646
 30
0.0
  0
VERTEX
  5
147
330
41
100
AcDbEntity
  8
Layer 1
 62
     7
420
 16777215
370
    25
100
AcDbVertex
100
AcDb2dVertex
 10
24.60183584657803
 20
-12.95004209406646
 30
0.0
  0
VERTEX
  5
148
330
41
100
AcDbEntity
  8
Layer 1
 62
     7
420
 16777215
370
    25
100
AcDbVertex
100
AcDb2dVertex
 10
24.60183584657803
 20
-12.55105051362693
 30
0.0
  0
VERTEX
  5
149
330
41
100
AcDbEntity
  8
Layer 1
 62
     7
420
 16777215
370
    25
100
AcDbVertex
100
AcDb2dVertex
 10
25.69756569113917
 20
-12.55105051362693
 30
0.0
  0
VERTEX
  5
14A
330
41
100
AcDbEntity
  8
Layer 1
 62
     7
420
 16777215
370
    25
100
AcDbVertex
100
AcDb2dVertex
 10
25.69756569113917
 20
-8.44894948112378
 30
0.0
  0
VERTEX
  5
14B
330
41
100
AcDbEntity
  8
Layer 1
 62
     7
420
 16777215
370
    25
100
AcDbVertex
100
AcDb2dVertex
 10
24.60183584657803
 20
-8.44894948112378
 30
0.0
  0
SEQEND
  5
14C
330
41
100
AcDbEntity
  8
Layer 1
 62
     7
420
 16777215
370
    25
  0
POLYLINE
  5
14D
330
1F
100
AcDbEntity
  8
Layer 1
 62
     7
420
 16777215
370
    25
100
AcDb2dPolyline
 66
     1
 10
0.0
 20
0.0
 30
0.0
  0
VERTEX
  5
14E
330
14D
100
AcDbEntity
  8
Layer 1
 62
     7
420
 16777215
370
    25
100
AcDbVertex
100
AcDb2dVertex
 10
4.389787918688305
 20
-12.12454123299897
 30
0.0
  0
VERTEX
  5
14F
330
14D
100
AcDbEntity
  8
Layer 1
 62
     7
420
 16777215
370
    25
100
AcDbVertex
100
AcDb2dVertex
 10
4.174236906914936
 20
-12.12454123299897
 30
0.0
  0
VERTEX
  5
150
330
14D
100
AcDbEntity
  8
Layer 1
 62
     7
420
 16777215
370
    25
100
AcDbVertex
100
AcDb2dVertex
 10
4.174236906914936
 20
-8.875458761751744
 30
0.0
  0
VERTEX
  5
151
330
14D
100
AcDbEntity
  8
Layer 1
 62
     7
420
 16777215
370
    25
100
AcDbVertex
100
AcDb2dVertex
 10
4.389787918688305
 20
-8.875458761751744
 30
0.0
  0
VERTEX
  5
152
330
14D
100
AcDbEntity
  8
Layer 1
 62
     7
420
 16777215
370
    25
100
AcDbVertex
100
AcDb2dVertex
 10
4.389787918688305
 20
-12.12454123299897
 30
0.0
  0
SEQEND
  5
153
330
14D
100
AcDbEntity
  8
Layer 1
 62
     7
420
 16777215
370
    25
  0
POLYLINE
  5
154
330
1F
100
AcDbEntity
  8
Layer 1
 62
     7
420
 16777215
370
    25
100
AcDb2dPolyline
 66
     1
 10
0.0
 20
0.0
 30
0.0
  0
VERTEX
  5
155
330
154
100
AcDbEntity
  8
Layer 1
 62
     7
420
 16777215
370
    25
100
AcDbVertex
100
AcDb2dVertex
 10
4.789832406435516
 20
-12.12454123299897
 30
0.0
  0
VERTEX
  5
156
330
154
100
AcDbEntity
  8
Layer 1
 62
     7
420
 16777215
370
    25
100
AcDbVertex
100
AcDb2dVertex
 10
4.57429000740086
 20
-12.12454123299897
 30
0.0
  0
VERTEX
  5
157
330
154
100
AcDbEntity
  8
Layer 1
 62
     7
420
 16777215
370
    25
100
AcDbVertex
100
AcDb2dVertex
 10
4.57429000740086
 20
-8.875458761751744
 30
0.0
  0
VERTEX
  5
158
330
154
100
AcDbEntity
  8
Layer 1
 62
     7
420
 16777215
370
    25
100
AcDbVertex
100
AcDb2dVertex
 10
4.789832406435516
 20
-8.875458761751744
 30
0.0
  0
VERTEX
  5
159
330
154
100
AcDbEntity
  8
Layer 1
 62
     7
420
 16777215
370
    25
100
AcDbVertex
100
AcDb2dVertex
 10
4.789832406435516
 20
-12.12454123299897
 30
0.0
  0
SEQEND
  5
15A
330
154
100
AcDbEntity
  8
Layer 1
 62
     7
420
 16777215
370
    25
  0
POLYLINE
  5
15B
330
1F
100
AcDbEntity
  8
Layer 1
 62
     7
420
 16777215
370
    25
100
AcDb2dPolyline
 66
     1
 10
0.0
 20
0.0
 30
0.0
  0
VERTEX
  5
15C
330
15B
100
AcDbEntity
  8
Layer 1
 62
     7
420
 16777215
370
    25
100
AcDbVertex
100
AcDb2dVertex
 10
25.12606741382979
 20
-12.12560059986068
 30
0.0
  0
VERTEX
  5
15D
330
15B
100
AcDbEntity
  8
Layer 1
 62
     7
420
 16777215
370
    25
100
AcDbVertex
100
AcDb2dVertex
 10
24.91051640205642
 20
-12.12560059986068
 30
0.0
  0
VERTEX
  5
15E
330
15B
100
AcDbEntity
  8
Layer 1
 62
     7
420
 16777215
370
    25
100
AcDbVertex
100
AcDb2dVertex
 10
24.91051640205642
 20
-8.874399394890029
 30
0.0
  0
VERTEX
  5
15F
330
15B
100
AcDbEntity
  8
Layer 1
 62
     7
420
 16777215
370
    25
100
AcDbVertex
100
AcDb2dVertex
 10
25.12606741382979
 20
-8.874399394890029
 30
0.0
  0
VERTEX
  5
160
330
15B
100
AcDbEntity
  8
Layer 1
 62
     7
420
 16777215
370
    25
100
AcDbVertex
100
AcDb2dVertex
 10
25.12606741382979
 20
-12.12560059986068
 30
0.0
  0
SEQEND
  5
161
330
15B
100
AcDbEntity
  8
Layer 1
 62
     7
420
 16777215
370
    25
  0
POLYLINE
  5
162
330
1F
100
AcDbEntity
  8
Layer 1
 62
     7
420
 16777215
370
    25
100
AcDb2dPolyline
 66
     1
 10
0.0
 20
0.0
 30
0.0
  0
VERTEX
  5
163
330
162
100
AcDbEntity
  8
Layer 1
 62
     7
420
 16777215
370
    25
100
AcDbVertex
100
AcDb2dVertex
 10
25.526111901577
 20
-12.12560059986068
 30
0.0
  0
VERTEX
  5
164
330
162
100
AcDbEntity
  8
Layer 1
 62
     7
420
 16777215
370
    25
100
AcDbVertex
100
AcDb2dVertex
 10
25.31056950254234
 20
-12.12560059986068
 30
0.0
  0
VERTEX
  5
165
330
162
100
AcDbEntity
  8
Layer 1
 62
     7
420
 16777215
370
    25
100
AcDbVertex
100
AcDb2dVertex
 10
25.31056950254234
 20
-8.874399394890029
 30
0.0
  0
VERTEX
  5
166
330
162
100
AcDbEntity
  8
Layer 1
 62
     7
420
 16777215
370
    25
100
AcDbVertex
100
AcDb2dVertex
 10
25.526111901577
 20
-8.874399394890029
 30
0.0
  0
VERTEX
  5
167
330
162
100
AcDbEntity
  8
Layer 1
 62
     7
420
 16777215
370
    25
100
AcDbVertex
100
AcDb2dVertex
 10
25.526111901577
 20
-12.12560059986068
 30
0.0
  0
SEQEND
  5
168
330
162
100
AcDbEntity
  8
Layer 1
 62
     7
420
 16777215
370
    25
  0
MTEXT
  5
169
330
1F
100
AcDbEntity
  8
Layer 1
 62
   250
420
  2829099
100
AcDbMText
 10
0.7947969858513767
 20
-19.89874744553597
 30
0.0
 40
0.2247899999438025
 41
0.0
 46
0.0
 71
     7
 72
     1
  1
\fMetropolis Regular|b0|i0|c0|p34;\W1;Tanto el diseo del modelo Make Safe MS-20 como el de todo el contenido relacionado, se encuentran bajo licencia 
 73
     1
 44
1.0
  0
MTEXT
  5
16A
330
1F
100
AcDbEntity
  8
Layer 1
 62
   250
420
  2829099
100
AcDbMText
 10
0.7947969858513767
 20
-20.27974055524975
 30
0.0
 40
0.2247899999438025
 41
0.0
 46
0.0
 71
     7
 72
     1
  1
\fMetropolis Regular|b0|i0|c0|p34;\W1;Creative Commons Reconocimiento-NoComercial-CompartirIgual, atribuida a su diseador, Gerard Valls Montao.
 73
     1
 44
1.0
  0
IMAGE
  5
16E
330
1F
100
AcDbEntity
  8
Layer 1
160
                 8
310
0800000000000000
100
AcDbRasterImage
 90
        0
 10
24.75469991273942
 20
-20.47861861512731
 30
0.0
 11
0.008283015887036279
 21
0.0
 31
0.0
 12
0.0
 22
0.008283015887036279
 32
0.0
 13
518.0
 23
119.0
340
16C
 70
     3
280
     0
281
    50
282
    50
283
     0
360
16F
 71
     1
 91
        2
 14
-0.5
 24
-0.5
 14
517.5
 24
118.5
290
     0
  0
MTEXT
  5
170
330
1F
100
AcDbEntity
  8
Layer 1
 62
   179
420
  2301728
100
AcDbMText
 10
0.7948018305169028
 20
-1.322907784449139
 30
0.0
 40
0.449579999887605
 41
0.0
 46
0.0
 71
     7
 72
     1
  1
\fMyriad Pro|b0|i0|c0|p34;\W1;MakeSafe MS-20
 73
     1
 44
1.0
  0
ENDSEC
  0
SECTION
  2
OBJECTS
  0
DICTIONARY
  5
C
330
0
100
AcDbDictionary
281
     1
  3
ACAD_GROUP
350
D
  3
ACAD_IMAGE_DICT
350
16B
  3
ACAD_IMAGE_VARS
350
16D
  3
ACAD_LAYOUT
350
1A
  3
ACAD_MATERIAL
350
3B
  3
ACAD_MLEADERSTYLE
350
172
  3
ACAD_MLINESTYLE
350
17
  3
ACAD_PLOTSETTINGS
350
19
  3
ACAD_PLOTSTYLENAME
350
E
  3
ACAD_TABLESTYLE
350
171
  3
ACAD_VISUALSTYLE
350
2A
  0
SUN
  5
3F
330
29
100
AcDbSun
 90
        1
290
     0
 63
     7
421
 16777215
 40
1.0
291
     1
 91
  2455826
 92
 54000000
292
     0
 70
     2
 71
   256
280
     1
  0
IMAGEDEF_REACTOR
  5
16F
330
16E
100
AcDbRasterImageDefReactor
 90
        2
330
16E
  0
DICTIONARY
  5
D
102
{ACAD_REACTORS
330
C
102
}
330
C
100
AcDbDictionary
281
     1
  0
DICTIONARY
  5
16B
102
{ACAD_REACTORS
330
C
102
}
330
C
100
AcDbDictionary
281
     1
  3
/Users/GERARD/Desktop/Plantilla de corte la\U+0301ser la\U+0301mina protectora PET Gafas EPI Modelo MakeSafe MS-20 viga v.8.2_1.png
350
16C
  0
RASTERVARIABLES
  5
16D
102
{ACAD_REACTORS
330
C
102
}
330
C
100
AcDbRasterVariables
 90
        0
 70
     0
 71
     1
 72
     0
  0
DICTIONARY
  5
1A
102
{ACAD_REACTORS
330
C
102
}
330
C
100
AcDbDictionary
281
     1
  3
Layout1
350
1E
  3
Layout2
350
26
  3
Model
350
22
  0
DICTIONARY
  5
3B
102
{ACAD_REACTORS
330
C
102
}
330
C
100
AcDbDictionary
281
     1
  3
ByBlock
350
3D
  3
ByLayer
350
3C
  3
Global
350
3E
  0
DICTIONARY
  5
172
102
{ACAD_REACTORS
330
C
102
}
330
C
100
AcDbDictionary
281
     1
  0
DICTIONARY
  5
17
102
{ACAD_REACTORS
330
C
102
}
330
C
100
AcDbDictionary
281
     1
  3
Standard
350
18
  0
DICTIONARY
  5
19
102
{ACAD_REACTORS
330
C
102
}
330
C
100
AcDbDictionary
281
     1
  0
ACDBDICTIONARYWDFLT
  5
E
102
{ACAD_REACTORS
330
C
102
}
330
C
100
AcDbDictionary
281
     1
  3
Normal
350
F
100
AcDbDictionaryWithDefault
340
F
  0
DICTIONARY
  5
171
102
{ACAD_REACTORS
330
C
102
}
330
C
100
AcDbDictionary
281
     1
  0
DICTIONARY
  5
2A
102
{ACAD_REACTORS
330
C
102
}
330
C
100
AcDbDictionary
281
     1
  3
2dWireframe
350
2F
  3
3D Hidden
350
31
  3
3dWireframe
350
30
  3
Basic
350
32
  3
Brighten
350
36
  3
ColorChange
350
3A
  3
Conceptual
350
34
  3
Dim
350
35
  3
Facepattern
350
39
  3
Flat
350
2B
  3
FlatWithEdges
350
2C
  3
Gouraud
350
2D
  3
GouraudWithEdges
350
2E
  3
Linepattern
350
38
  3
Realistic
350
33
  3
Thicken
350
37
  0
IMAGEDEF
  5
16C
102
{ACAD_REACTORS
330
16B
330
16F
102
}
330
16B
100
AcDbRasterImageDef
 90
        0
  1
/Users/GERARD/Desktop/Plantilla de corte la\U+0301ser la\U+0301mina protectora PET Gafas EPI Modelo MakeSafe MS-20 viga v.8.2_1.png
 10
518.0
 20
119.0
 11
0.3527777777777777
 21
0.3527777777777777
280
     1
281
     5
  0
LAYOUT
  5
1E
102
{ACAD_REACTORS
330
1A
102
}
330
1A
100
AcDbPlotSettings
  1

  2
none_device
  4

  6

 40
0.0
 41
0.0
 42
0.0
 43
0.0
 44
0.0
 45
0.0
 46
0.0
 47
0.0
 48
0.0
 49
0.0
140
0.0
141
0.0
142
1.0
143
1.0
 70
   688
 72
     0
 73
     0
 74
     5
  7

 75
    16
 76
     0
 77
     2
 78
   300
147
1.0
148
0.0
149
0.0
100
AcDbLayout
  1
Layout1
 70
     1
 71
     1
 10
0.0
 20
0.0
 11
12.0
 21
9.0
 12
0.0
 22
0.0
 32
0.0
 14
1.000000000000000E+20
 24
1.000000000000000E+20
 34
1.000000000000000E+20
 15
-1.000000000000000E+20
 25
-1.000000000000000E+20
 35
-1.000000000000000E+20
146
0.0
 13
0.0
 23
0.0
 33
0.0
 16
1.0
 26
0.0
 36
0.0
 17
0.0
 27
1.0
 37
0.0
 76
     0
330
1B
  0
LAYOUT
  5
26
102
{ACAD_REACTORS
330
1A
102
}
330
1A
100
AcDbPlotSettings
  1

  2
none_device
  4

  6

 40
0.0
 41
0.0
 42
0.0
 43
0.0
 44
0.0
 45
0.0
 46
0.0
 47
0.0
 48
0.0
 49
0.0
140
0.0
141
0.0
142
1.0
143
1.0
 70
   688
 72
     0
 73
     0
 74
     5
  7

 75
    16
 76
     0
 77
     2
 78
   300
147
1.0
148
0.0
149
0.0
100
AcDbLayout
  1
Layout2
 70
     1
 71
     2
 10
0.0
 20
0.0
 11
0.0
 21
0.0
 12
0.0
 22
0.0
 32
0.0
 14
0.0
 24
0.0
 34
0.0
 15
0.0
 25
0.0
 35
0.0
146
0.0
 13
0.0
 23
0.0
 33
0.0
 16
1.0
 26
0.0
 36
0.0
 17
0.0
 27
1.0
 37
0.0
 76
     0
330
23
  0
LAYOUT
  5
22
102
{ACAD_REACTORS
330
1A
102
}
330
1A
100
AcDbPlotSettings
  1

  2
none_device
  4

  6

 40
0.0
 41
0.0
 42
0.0
 43
0.0
 44
0.0
 45
0.0
 46
0.0
 47
0.0
 48
0.0
 49
0.0
140
0.0
141
0.0
142
1.0
143
1.0
 70
  1712
 72
     0
 73
     0
 74
     0
  7

 75
     0
 76
     0
 77
     2
 78
   300
147
1.0
148
0.0
149
0.0
100
AcDbLayout
  1
Model
 70
     1
 71
     0
 10
0.0
 20
0.0
 11
12.0
 21
9.0
 12
0.0
 22
0.0
 32
0.0
 14
1.000000000000000E+20
 24
1.000000000000000E+20
 34
1.000000000000000E+20
 15
-1.000000000000000E+20
 25
-1.000000000000000E+20
 35
-1.000000000000000E+20
146
0.0
 13
0.0
 23
0.0
 33
0.0
 16
1.0
 26
0.0
 36
0.0
 17
0.0
 27
1.0
 37
0.0
 76
     0
330
1F
331
29
  0
MATERIAL
  5
3D
102
{ACAD_REACTORS
330
3B
102
}
330
3B
100
AcDbMaterial
  1
ByBlock
 72
     1
 94
      127
  0
MATERIAL
  5
3C
102
{ACAD_REACTORS
330
3B
102
}
330
3B
100
AcDbMaterial
  1
ByLayer
 72
     1
 94
      127
  0
MATERIAL
  5
3E
102
{ACAD_REACTORS
330
3B
102
}
330
3B
100
AcDbMaterial
  1
Global
 72
     1
 94
      127
  0
MLINESTYLE
  5
18
102
{ACAD_REACTORS
330
17
102
}
330
17
100
AcDbMlineStyle
  2
Standard
 70
     0
  3

 62
   256
 51
90.0
 52
90.0
 71
     2
 49
0.5
 62
   256
  6
BYLAYER
 49
-0.5
 62
   256
  6
BYLAYER
  0
ACDBPLACEHOLDER
  5
F
102
{ACAD_REACTORS
330
E
102
}
330
E
  0
VISUALSTYLE
  5
2F
102
{ACAD_REACTORS
330
2A
102
}
330
2A
100
AcDbVisualStyle
  2
2dWireframe
 70
     4
177
     2
291
     0
 71
     0
176
     1
 72
     2
176
     1
 73
     0
176
     1
 90
        0
176
     1
 40
-0.6
176
     1
 41
-30.0
176
     1
 62
     5
 63
     7
421
 16777215
176
     1
 74
     1
176
     1
 91
        4
176
     1
 64
     7
176
     1
 65
   257
176
     1
 75
     1
176
     1
175
     1
176
     1
 42
1.0
176
     1
 92
        0
176
     1
 66
   257
176
     1
 43
1.0
176
     1
 76
     1
176
     1
 77
     6
176
     1
 78
     2
176
     1
 67
     7
176
     1
 79
     5
176
     1
170
     0
176
     1
171
     0
176
     1
290
     0
176
     1
 93
        1
176
     1
 44
0.0
176
     1
173
     0
176
     1
  0
VISUALSTYLE
  5
31
102
{ACAD_REACTORS
330
2A
102
}
330
2A
100
AcDbVisualStyle
  2
3D Hidden
 70
     6
177
     2
291
     0
 71
     1
176
     1
 72
     2
176
     1
 73
     2
176
     1
 90
        0
176
     1
 40
-0.6
176
     1
 41
-30.0
176
     1
 62
     5
 63
     7
421
 16777215
176
     1
 74
     2
176
     1
 91
        2
176
     1
 64
     7
176
     1
 65
   257
176
     1
 75
     2
176
     1
175
     1
176
     1
 42
40.0
176
     1
 92
        0
176
     1
 66
   257
176
     1
 43
1.0
176
     1
 76
     1
176
     1
 77
     6
176
     1
 78
     2
176
     1
 67
     7
176
     1
 79
     3
176
     1
170
     0
176
     1
171
     0
176
     1
290
     0
176
     1
 93
        1
176
     1
 44
0.0
176
     1
173
     0
176
     1
  0
VISUALSTYLE
  5
30
102
{ACAD_REACTORS
330
2A
102
}
330
2A
100
AcDbVisualStyle
  2
3dWireframe
 70
     5
177
     2
291
     0
 71
     0
176
     1
 72
     2
176
     1
 73
     0
176
     1
 90
        0
176
     1
 40
-0.6
176
     1
 41
-30.0
176
     1
 62
     5
 63
     7
421
 16777215
176
     1
 74
     1
176
     1
 91
        4
176
     1
 64
     7
176
     1
 65
   257
176
     1
 75
     1
176
     1
175
     1
176
     1
 42
1.0
176
     1
 92
        0
176
     1
 66
   257
176
     1
 43
1.0
176
     1
 76
     1
176
     1
 77
     6
176
     1
 78
     2
176
     1
 67
     7
176
     1
 79
     5
176
     1
170
     0
176
     1
171
     0
176
     1
290
     0
176
     1
 93
        1
176
     1
 44
0.0
176
     1
173
     0
176
     1
  0
VISUALSTYLE
  5
32
102
{ACAD_REACTORS
330
2A
102
}
330
2A
100
AcDbVisualStyle
  2
Basic
 70
     7
177
     2
291
     1
 71
     1
176
     1
 72
     0
176
     1
 73
     1
176
     1
 90
        0
176
     1
 40
-0.6
176
     1
 41
-30.0
176
     1
 62
     5
 63
     7
421
 16777215
176
     1
 74
     0
176
     1
 91
        4
176
     1
 64
     7
176
     1
 65
   257
176
     1
 75
     1
176
     1
175
     1
176
     1
 42
1.0
176
     1
 92
        8
176
     1
 66
     7
176
     1
 43
1.0
176
     1
 76
     1
176
     1
 77
     6
176
     1
 78
     2
176
     1
 67
     7
176
     1
 79
     5
176
     1
170
     0
176
     1
171
     0
176
     1
290
     0
176
     1
 93
        1
176
     1
 44
0.0
176
     1
173
     0
176
     1
  0
VISUALSTYLE
  5
36
102
{ACAD_REACTORS
330
2A
102
}
330
2A
100
AcDbVisualStyle
  2
Brighten
 70
    12
177
     2
291
     1
 71
     2
176
     1
 72
     2
176
     1
 73
     0
176
     1
 90
        0
176
     1
 40
-0.6
176
     1
 41
-30.0
176
     1
 62
     5
 63
     7
421
 16777215
176
     1
 74
     1
176
     1
 91
        4
176
     1
 64
     7
176
     1
 65
   257
176
     1
 75
     1
176
     1
175
     1
176
     1
 42
1.0
176
     1
 92
        8
176
     1
 66
     7
176
     1
 43
1.0
176
     1
 76
     1
176
     1
 77
     6
176
     1
 78
     2
176
     1
 67
     7
176
     1
 79
     5
176
     1
170
     0
176
     1
171
     0
176
     1
290
     0
176
     1
 93
        1
176
     1
 44
50.0
176
     1
173
     0
176
     1
  0
VISUALSTYLE
  5
3A
102
{ACAD_REACTORS
330
2A
102
}
330
2A
100
AcDbVisualStyle
  2
ColorChange
 70
    16
177
     2
291
     1
 71
     2
176
     1
 72
     2
176
     1
 73
     3
176
     1
 90
        0
176
     1
 40
-0.6
176
     1
 41
-30.0
176
     1
 62
     5
 63
     8
421
  8421504
176
     1
 74
     1
176
     1
 91
        4
176
     1
 64
     7
176
     1
 65
   257
176
     1
 75
     1
176
     1
175
     1
176
     1
 42
1.0
176
     1
 92
        8
176
     1
 66
     8
424
  8421504
176
     1
 43
1.0
176
     1
 76
     1
176
     1
 77
     6
176
     1
 78
     2
176
     1
 67
     7
176
     1
 79
     5
176
     1
170
     0
176
     1
171
     0
176
     1
290
     0
176
     1
 93
        1
176
     1
 44
0.0
176
     1
173
     0
176
     1
  0
VISUALSTYLE
  5
34
102
{ACAD_REACTORS
330
2A
102
}
330
2A
100
AcDbVisualStyle
  2
Conceptual
 70
     9
177
     2
291
     0
 71
     3
176
     1
 72
     2
176
     1
 73
     0
176
     1
 90
        0
176
     1
 40
-0.6
176
     1
 41
-30.0
176
     1
 62
     5
 63
     7
421
 16777215
176
     1
 74
     2
176
     1
 91
        2
176
     1
 64
     7
176
     1
 65
   257
176
     1
 75
     1
176
     1
175
     1
176
     1
 42
40.0
176
     1
 92
        8
176
     1
 66
     7
176
     1
 43
1.0
176
     1
 76
     1
176
     1
 77
     6
176
     1
 78
     2
176
     1
 67
     7
176
     1
 79
     3
176
     1
170
     0
176
     1
171
     0
176
     1
290
     0
176
     1
 93
        1
176
     1
 44
0.0
176
     1
173
     0
176
     1
  0
VISUALSTYLE
  5
35
102
{ACAD_REACTORS
330
2A
102
}
330
2A
100
AcDbVisualStyle
  2
Dim
 70
    11
177
     2
291
     1
 71
     2
176
     1
 72
     2
176
     1
 73
     0
176
     1
 90
        0
176
     1
 40
-0.6
176
     1
 41
-30.0
176
     1
 62
     5
 63
     7
421
 16777215
176
     1
 74
     1
176
     1
 91
        4
176
     1
 64
     7
176
     1
 65
   257
176
     1
 75
     1
176
     1
175
     1
176
     1
 42
1.0
176
     1
 92
        8
176
     1
 66
     7
176
     1
 43
1.0
176
     1
 76
     1
176
     1
 77
     6
176
     1
 78
     2
176
     1
 67
     7
176
     1
 79
     5
176
     1
170
     0
176
     1
171
     0
176
     1
290
     0
176
     1
 93
        1
176
     1
 44
-50.0
176
     1
173
     0
176
     1
  0
VISUALSTYLE
  5
39
102
{ACAD_REACTORS
330
2A
102
}
330
2A
100
AcDbVisualStyle
  2
Facepattern
 70
    15
177
     2
291
     1
 71
     2
176
     1
 72
     2
176
     1
 73
     0
176
     1
 90
        0
176
     1
 40
-0.6
176
     1
 41
-30.0
176
     1
 62
     5
 63
     7
421
 16777215
176
     1
 74
     1
176
     1
 91
        4
176
     1
 64
     7
176
     1
 65
   257
176
     1
 75
     1
176
     1
175
     1
176
     1
 42
1.0
176
     1
 92
        8
176
     1
 66
     7
176
     1
 43
1.0
176
     1
 76
     1
176
     1
 77
     6
176
     1
 78
     2
176
     1
 67
     7
176
     1
 79
     5
176
     1
170
     0
176
     1
171
     0
176
     1
290
     0
176
     1
 93
        1
176
     1
 44
0.0
176
     1
173
     0
176
     1
  0
VISUALSTYLE
  5
2B
102
{ACAD_REACTORS
330
2A
102
}
330
2A
100
AcDbVisualStyle
  2
Flat
 70
     0
177
     2
291
     1
 71
     2
176
     1
 72
     1
176
     1
 73
     1
176
     1
 90
        2
176
     1
 40
-0.6
176
     1
 41
30.0
176
     1
 62
     5
 63
     7
421
 16777215
176
     1
 74
     0
176
     1
 91
        4
176
     1
 64
     7
176
     1
 65
   257
176
     1
 75
     1
176
     1
175
     1
176
     1
 42
1.0
176
     1
 92
        8
176
     1
 66
     7
176
     1
 43
1.0
176
     1
 76
     1
176
     1
 77
     6
176
     1
 78
     2
176
     1
 67
     7
176
     1
 79
     5
176
     1
170
     0
176
     1
171
     0
176
     1
290
     0
176
     1
 93
       13
176
     1
 44
0.0
176
     1
173
     0
176
     1
  0
VISUALSTYLE
  5
2C
102
{ACAD_REACTORS
330
2A
102
}
330
2A
100
AcDbVisualStyle
  2
FlatWithEdges
 70
     1
177
     2
291
     1
 71
     2
176
     1
 72
     1
176
     1
 73
     1
176
     1
 90
        2
176
     1
 40
-0.6
176
     1
 41
30.0
176
     1
 62
     5
 63
     7
421
 16777215
176
     1
 74
     1
176
     1
 91
        4
176
     1
 64
     7
176
     1
 65
   257
176
     1
 75
     1
176
     1
175
     1
176
     1
 42
1.0
176
     1
 92
        0
176
     1
 66
   257
176
     1
 43
1.0
176
     1
 76
     1
176
     1
 77
     6
176
     1
 78
     2
176
     1
 67
     7
176
     1
 79
     5
176
     1
170
     0
176
     1
171
     0
176
     1
290
     0
176
     1
 93
       13
176
     1
 44
0.0
176
     1
173
     0
176
     1
  0
VISUALSTYLE
  5
2D
102
{ACAD_REACTORS
330
2A
102
}
330
2A
100
AcDbVisualStyle
  2
Gouraud
 70
     2
177
     2
291
     1
 71
     2
176
     1
 72
     2
176
     1
 73
     1
176
     1
 90
        2
176
     1
 40
-0.6
176
     1
 41
30.0
176
     1
 62
     5
 63
     7
421
 16777215
176
     1
 74
     0
176
     1
 91
        4
176
     1
 64
     7
176
     1
 65
   257
176
     1
 75
     1
176
     1
175
     1
176
     1
 42
1.0
176
     1
 92
        0
176
     1
 66
     7
176
     1
 43
1.0
176
     1
 76
     1
176
     1
 77
     6
176
     1
 78
     2
176
     1
 67
     7
176
     1
 79
     5
176
     1
170
     0
176
     1
171
     0
176
     1
290
     0
176
     1
 93
       13
176
     1
 44
0.0
176
     1
173
     0
176
     1
  0
VISUALSTYLE
  5
2E
102
{ACAD_REACTORS
330
2A
102
}
330
2A
100
AcDbVisualStyle
  2
GouraudWithEdges
 70
     3
177
     2
291
     1
 71
     2
176
     1
 72
     2
176
     1
 73
     1
176
     1
 90
        2
176
     1
 40
-0.6
176
     1
 41
30.0
176
     1
 62
     5
 63
     7
421
 16777215
176
     1
 74
     1
176
     1
 91
        4
176
     1
 64
     7
176
     1
 65
   257
176
     1
 75
     1
176
     1
175
     1
176
     1
 42
1.0
176
     1
 92
        0
176
     1
 66
   257
176
     1
 43
1.0
176
     1
 76
     1
176
     1
 77
     6
176
     1
 78
     2
176
     1
 67
     7
176
     1
 79
     5
176
     1
170
     0
176
     1
171
     0
176
     1
290
     0
176
     1
 93
       13
176
     1
 44
0.0
176
     1
173
     0
176
     1
  0
VISUALSTYLE
  5
38
102
{ACAD_REACTORS
330
2A
102
}
330
2A
100
AcDbVisualStyle
  2
Linepattern
 70
    14
177
     2
291
     1
 71
     2
176
     1
 72
     2
176
     1
 73
     0
176
     1
 90
        0
176
     1
 40
-0.6
176
     1
 41
-30.0
176
     1
 62
     5
 63
     7
421
 16777215
176
     1
 74
     1
176
     1
 91
        4
176
     1
 64
     7
176
     1
 65
   257
176
     1
 75
     7
176
     1
175
     7
176
     1
 42
1.0
176
     1
 92
        8
176
     1
 66
     7
176
     1
 43
1.0
176
     1
 76
     1
176
     1
 77
     6
176
     1
 78
     2
176
     1
 67
     7
176
     1
 79
     5
176
     1
170
     0
176
     1
171
     0
176
     1
290
     0
176
     1
 93
        1
176
     1
 44
0.0
176
     1
173
     0
176
     1
  0
VISUALSTYLE
  5
33
102
{ACAD_REACTORS
330
2A
102
}
330
2A
100
AcDbVisualStyle
  2
Realistic
 70
     8
177
     2
291
     0
 71
     2
176
     1
 72
     2
176
     1
 73
     0
176
     1
 90
        0
176
     1
 40
-0.6
176
     1
 41
-30.0
176
     1
 62
     5
 63
     7
421
 16777215
176
     1
 74
     1
176
     1
 91
        0
176
     1
 64
     7
176
     1
 65
   257
176
     1
 75
     1
176
     1
175
     1
176
     1
 42
1.0
176
     1
 92
        8
176
     1
 66
     8
424
  7895160
176
     1
 43
1.0
176
     1
 76
     1
176
     1
 77
     6
176
     1
 78
     2
176
     1
 67
     7
176
     1
 79
     5
176
     1
170
     0
176
     1
171
     0
176
     1
290
     0
176
     1
 93
       13
176
     1
 44
0.0
176
     1
173
     0
176
     1
  0
VISUALSTYLE
  5
37
102
{ACAD_REACTORS
330
2A
102
}
330
2A
100
AcDbVisualStyle
  2
Thicken
 70
    13
177
     2
291
     1
 71
     2
176
     1
 72
     2
176
     1
 73
     0
176
     1
 90
        0
176
     1
 40
-0.6
176
     1
 41
-30.0
176
     1
 62
     5
 63
     7
421
 16777215
176
     1
 74
     1
176
     1
 91
        4
176
     1
 64
     7
176
     1
 65
   257
176
     1
 75
     1
176
     1
175
     1
176
     1
 42
1.0
176
     1
 92
       12
176
     1
 66
     7
176
     1
 43
1.0
176
     1
 76
     1
176
     1
 77
     6
176
     1
 78
     2
176
     1
 67
     7
176
     1
 79
     5
176
     1
170
     0
176
     1
171
     0
176
     1
290
     0
176
     1
 93
        1
176
     1
 44
0.0
176
     1
173
     0
176
     1
  0
ENDSEC
  0
EOF
